<svg width="18" height="24" viewBox="0 0 18 24" fill="none" xmlns="http://www.w3.org/2000/svg">
<path d="M4.89937 3.58719C5.04199 3.54408 5.19589 3.55931 5.32729 3.62955C5.45869 3.69978 5.55686 3.81928 5.60025 3.96181L5.92763 5.03731C6.84161 4.44169 7.90907 4.1247 9 4.12494C10.1329 4.12494 11.1892 4.46019 12.0724 5.03731L12.3986 3.96181C12.4196 3.89064 12.4545 3.82434 12.5013 3.76671C12.548 3.70908 12.6057 3.66127 12.671 3.62604C12.7363 3.59081 12.808 3.56884 12.8818 3.56142C12.9556 3.55399 13.0302 3.56125 13.1012 3.58277C13.1722 3.60429 13.2383 3.63965 13.2956 3.68681C13.3529 3.73397 13.4003 3.792 13.4351 3.85756C13.4698 3.92312 13.4913 3.99491 13.4982 4.0688C13.5051 4.14268 13.4973 4.2172 13.4752 4.28806L13.014 5.80906C14.0466 6.86088 14.6251 8.27598 14.625 9.74994H15.1875C15.3367 9.74994 15.4798 9.69068 15.5852 9.58519C15.6907 9.4797 15.75 9.33662 15.75 9.18744V8.62494C15.75 8.47575 15.8093 8.33268 15.9148 8.22719C16.0202 8.1217 16.1633 8.06244 16.3125 8.06244C16.4617 8.06244 16.6048 8.1217 16.7102 8.22719C16.8157 8.33268 16.875 8.47575 16.875 8.62494V9.18744C16.875 9.63499 16.6972 10.0642 16.3807 10.3807C16.0643 10.6971 15.6351 10.8749 15.1875 10.8749H14.625V11.9999H16.3125C16.4617 11.9999 16.6048 12.0592 16.7102 12.1647C16.8157 12.2702 16.875 12.4133 16.875 12.5624C16.875 12.7116 16.8157 12.8547 16.7102 12.9602C16.6048 13.0657 16.4617 13.1249 16.3125 13.1249H14.625V14.2499H15.1875C15.6351 14.2499 16.0643 14.4277 16.3807 14.7442C16.6972 15.0607 16.875 15.4899 16.875 15.9374V16.4999C16.875 16.6491 16.8157 16.7922 16.7102 16.8977C16.6048 17.0032 16.4617 17.0624 16.3125 17.0624C16.1633 17.0624 16.0202 17.0032 15.9148 16.8977C15.8093 16.7922 15.75 16.6491 15.75 16.4999V15.9374C15.75 15.7883 15.6907 15.6452 15.5852 15.5397C15.4798 15.4342 15.3367 15.3749 15.1875 15.3749H14.625C14.625 16.8668 14.0324 18.2975 12.9775 19.3524C11.9226 20.4073 10.4918 20.9999 9 20.9999C7.50816 20.9999 6.07742 20.4073 5.02252 19.3524C3.96763 18.2975 3.375 16.8668 3.375 15.3749H2.8125C2.66332 15.3749 2.52024 15.4342 2.41475 15.5397C2.30926 15.6452 2.25 15.7883 2.25 15.9374V16.4999C2.25 16.6491 2.19074 16.7922 2.08525 16.8977C1.97976 17.0032 1.83668 17.0624 1.6875 17.0624C1.53832 17.0624 1.39524 17.0032 1.28975 16.8977C1.18426 16.7922 1.125 16.6491 1.125 16.4999V15.9374C1.125 15.4899 1.30279 15.0607 1.61926 14.7442C1.93572 14.4277 2.36495 14.2499 2.8125 14.2499H3.375V13.1249H1.6875C1.53832 13.1249 1.39524 13.0657 1.28975 12.9602C1.18426 12.8547 1.125 12.7116 1.125 12.5624C1.125 12.4133 1.18426 12.2702 1.28975 12.1647C1.39524 12.0592 1.53832 11.9999 1.6875 11.9999H3.375V10.8749H2.8125C2.36495 10.8749 1.93572 10.6971 1.61926 10.3807C1.30279 10.0642 1.125 9.63499 1.125 9.18744V8.62494C1.125 8.47575 1.18426 8.33268 1.28975 8.22719C1.39524 8.1217 1.53832 8.06244 1.6875 8.06244C1.83668 8.06244 1.97976 8.1217 2.08525 8.22719C2.19074 8.33268 2.25 8.47575 2.25 8.62494V9.18744C2.25 9.33662 2.30926 9.4797 2.41475 9.58519C2.52024 9.69068 2.66332 9.74994 2.8125 9.74994H3.375C3.375 8.21544 3.99038 6.82381 4.986 5.80906L4.52475 4.28806C4.48164 4.14544 4.49687 3.99155 4.56711 3.86015C4.63734 3.72875 4.75684 3.63058 4.89937 3.58719ZM4.5 10.8749V15.3749C4.49962 16.4713 4.89948 17.53 5.62449 18.3524C6.3495 19.1747 7.34978 19.7041 8.4375 19.8412V10.8749H4.5ZM9.5625 10.8749V19.8412C10.6502 19.7041 11.6505 19.1747 12.3755 18.3524C13.1005 17.53 13.5004 16.4713 13.5 15.3749V10.8749H9.5625ZM13.5 9.74994C13.5 9.11664 13.3663 8.49047 13.1077 7.91237C12.8491 7.33428 12.4714 6.81728 11.9993 6.39519C11.1754 5.65582 10.1069 5.24782 9 5.24994C7.89267 5.24754 6.82373 5.65556 5.99963 6.39519C5.5277 6.81739 5.15019 7.33443 4.89178 7.91252C4.63336 8.4906 4.49986 9.11672 4.5 9.74994H13.5Z" fill="#3B3B3B"/>
</svg>
