<svg width="18" height="19" viewBox="0 0 18 19" fill="none" xmlns="http://www.w3.org/2000/svg">
<g clip-path="url(#clip0_12246_4699)">
<path d="M18 9.5C18 11.8869 17.0518 14.1761 15.364 15.864C13.6761 17.5518 11.3869 18.5 9 18.5C6.61305 18.5 4.32387 17.5518 2.63604 15.864C0.948212 14.1761 0 11.8869 0 9.5C0 7.11305 0.948212 4.82387 2.63604 3.13604C4.32387 1.44821 6.61305 0.5 9 0.5C11.3869 0.5 13.6761 1.44821 15.364 3.13604C17.0518 4.82387 18 7.11305 18 9.5ZM13.5337 6.09125C13.4534 6.01117 13.3577 5.94812 13.2524 5.90587C13.1471 5.86361 13.0344 5.84303 12.921 5.84534C12.8076 5.84765 12.6958 5.87281 12.5923 5.91931C12.4888 5.96582 12.3958 6.03271 12.3187 6.116L8.41162 11.0941L6.057 8.73837C5.89705 8.58933 5.6855 8.5082 5.46691 8.51205C5.24832 8.51591 5.03976 8.60446 4.88518 8.75905C4.73059 8.91364 4.64204 9.1222 4.63818 9.34079C4.63432 9.55938 4.71546 9.77093 4.8645 9.93088L7.84125 12.9087C7.92144 12.9888 8.01693 13.0519 8.12203 13.0942C8.22713 13.1366 8.33968 13.1573 8.45296 13.1552C8.56625 13.1531 8.67795 13.1282 8.78141 13.082C8.88486 13.0358 8.97795 12.9692 9.05512 12.8863L13.5461 7.2725C13.6992 7.11331 13.7838 6.90043 13.7817 6.67958C13.7796 6.45872 13.691 6.24749 13.5349 6.09125H13.5337Z" fill="#2E7D32"/>
</g>
<defs>
<clipPath id="clip0_12246_4699">
<rect width="18" height="18" fill="white" transform="translate(0 0.5)"/>
</clipPath>
</defs>
</svg>
