<svg width="18" height="19" viewBox="0 0 18 19" fill="none" xmlns="http://www.w3.org/2000/svg">
<g clip-path="url(#clip0_12246_12397)">
<path d="M18 9.5C18 11.8869 17.0518 14.1761 15.364 15.864C13.6761 17.5518 11.3869 18.5 9 18.5C6.61305 18.5 4.32387 17.5518 2.63604 15.864C0.948212 14.1761 0 11.8869 0 9.5C0 7.11305 0.948212 4.82387 2.63604 3.13604C4.32387 1.44821 6.61305 0.5 9 0.5C11.3869 0.5 13.6761 1.44821 15.364 3.13604C17.0518 4.82387 18 7.11305 18 9.5ZM9 5C8.85781 5.00008 8.71721 5.02994 8.58726 5.08767C8.45731 5.14539 8.3409 5.2297 8.24551 5.33515C8.15013 5.4406 8.07789 5.56487 8.03345 5.69994C7.98901 5.83501 7.97336 5.97789 7.9875 6.11937L8.38125 10.0647C8.39448 10.2197 8.4654 10.3641 8.57998 10.4693C8.69455 10.5746 8.84444 10.6329 9 10.6329C9.15556 10.6329 9.30545 10.5746 9.42002 10.4693C9.5346 10.3641 9.60552 10.2197 9.61875 10.0647L10.0125 6.11937C10.0266 5.97789 10.011 5.83501 9.96655 5.69994C9.92211 5.56487 9.84987 5.4406 9.75449 5.33515C9.6591 5.2297 9.54269 5.14539 9.41274 5.08767C9.28279 5.02994 9.14219 5.00008 9 5ZM9.00225 11.75C8.70388 11.75 8.41773 11.8685 8.20675 12.0795C7.99578 12.2905 7.87725 12.5766 7.87725 12.875C7.87725 13.1734 7.99578 13.4595 8.20675 13.6705C8.41773 13.8815 8.70388 14 9.00225 14C9.30062 14 9.58677 13.8815 9.79774 13.6705C10.0087 13.4595 10.1272 13.1734 10.1272 12.875C10.1272 12.5766 10.0087 12.2905 9.79774 12.0795C9.58677 11.8685 9.30062 11.75 9.00225 11.75Z" fill="#C62828"/>
</g>
<defs>
<clipPath id="clip0_12246_12397">
<rect width="18" height="18" fill="white" transform="translate(0 0.5)"/>
</clipPath>
</defs>
</svg>
