<svg width="18" height="24" viewBox="0 0 18 24" fill="none" xmlns="http://www.w3.org/2000/svg">
<path d="M16.6252 3.09562C16.702 3.14697 16.7649 3.21642 16.8085 3.29784C16.852 3.37926 16.8749 3.47016 16.875 3.5625V12C16.875 12.1123 16.8413 12.2221 16.7784 12.3151C16.7154 12.4082 16.626 12.4802 16.5217 12.522L16.5184 12.5231L16.5116 12.5265L16.4858 12.5366C16.3379 12.5955 16.189 12.6518 16.0391 12.7054C15.7421 12.8123 15.3293 12.9563 14.8612 13.0991C13.9432 13.3826 12.7474 13.6875 11.8125 13.6875C10.8596 13.6875 10.071 13.3725 9.38475 13.0969L9.35325 13.0856C8.64 12.7987 8.0325 12.5625 7.3125 12.5625C6.525 12.5625 5.46975 12.8212 4.57088 13.0991C4.16848 13.2248 3.7697 13.3617 3.375 13.5098V20.4375C3.375 20.5867 3.31574 20.7298 3.21025 20.8352C3.10476 20.9407 2.96168 21 2.8125 21C2.66332 21 2.52024 20.9407 2.41475 20.8352C2.30926 20.7298 2.25 20.5867 2.25 20.4375V3.5625C2.25 3.41332 2.30926 3.27024 2.41475 3.16475C2.52024 3.05926 2.66332 3 2.8125 3C2.96168 3 3.10476 3.05926 3.21025 3.16475C3.31574 3.27024 3.375 3.41332 3.375 3.5625V3.87975C3.62925 3.79088 3.933 3.6885 4.26375 3.58725C5.18175 3.306 6.37875 3 7.3125 3C8.2575 3 9.027 3.31163 9.69863 3.58388L9.747 3.60413C10.4467 3.8865 11.0565 4.125 11.8125 4.125C12.6 4.125 13.6553 3.86625 14.5541 3.58837C15.0662 3.42803 15.5724 3.24942 16.0718 3.05287L16.0931 3.045L16.0976 3.04275H16.0988M15.75 4.37362C15.5025 4.46137 15.21 4.5615 14.8883 4.6605C13.977 4.944 12.7823 5.24887 11.8125 5.24887C10.8158 5.24887 10.0215 4.92712 9.33413 4.64813L9.32512 4.64475C8.61975 4.36125 8.03137 4.125 7.3125 4.125C6.55988 4.125 5.50575 4.38263 4.59562 4.66275C4.18507 4.78925 3.77805 4.92693 3.375 5.07562V12.3127C3.6225 12.225 3.915 12.1249 4.23675 12.0259C5.148 11.7413 6.34275 11.4375 7.3125 11.4375C8.26538 11.4375 9.054 11.7525 9.74025 12.0281L9.77175 12.0394C10.485 12.3263 11.0925 12.5625 11.8125 12.5625C12.564 12.5625 13.6193 12.3049 14.5294 12.0248C14.9399 11.8982 15.347 11.7606 15.75 11.6119V4.37475V4.37362Z" fill="#3B3B3B"/>
</svg>
