<svg width="18" height="18" viewBox="0 0 18 18" fill="none" xmlns="http://www.w3.org/2000/svg">
<g clip-path="url(#clip0_1132_1850)">
<path d="M2.25001 6.75021C2.24997 5.63558 2.52597 4.53828 3.05335 3.5563C3.58073 2.57432 4.34308 1.73822 5.27233 1.12267C6.20157 0.50711 7.2688 0.131253 8.3787 0.0286564C9.48861 -0.0739402 10.6066 0.0999171 11.633 0.534704C12.6593 0.969492 13.562 1.65168 14.2605 2.52034C14.9589 3.38901 15.4314 4.41712 15.6357 5.51288C15.84 6.60863 15.7697 7.73793 15.4312 8.79992C15.0927 9.86191 14.4965 10.8235 13.6958 11.599C13.4674 11.8195 13.2919 12.049 13.1861 12.2953L12.3289 14.2855C12.2854 14.3863 12.2133 14.4722 12.1215 14.5326C12.0298 14.593 11.9223 14.6252 11.8125 14.6252H6.18751C6.07747 14.6254 5.9698 14.5933 5.87781 14.5329C5.78583 14.4725 5.71358 14.3865 5.67001 14.2855L4.81388 12.2942C4.6904 12.0318 4.51735 11.7957 4.30426 11.599C3.65338 10.9704 3.13597 10.2171 2.783 9.38393C2.43003 8.5508 2.24875 7.65503 2.25001 6.75021ZM5.62501 16.3127C5.62501 16.1635 5.68427 16.0205 5.78976 15.915C5.89525 15.8095 6.03832 15.7502 6.18751 15.7502H11.8125C11.9617 15.7502 12.1048 15.8095 12.2103 15.915C12.3157 16.0205 12.375 16.1635 12.375 16.3127C12.375 16.4619 12.3157 16.605 12.2103 16.7105C12.1048 16.816 11.9617 16.8752 11.8125 16.8752L11.5605 17.3781C11.4671 17.5649 11.3236 17.7221 11.146 17.832C10.9683 17.9418 10.7636 18.0001 10.5548 18.0002H7.44526C7.23639 18.0001 7.03167 17.9418 6.85404 17.832C6.67641 17.7221 6.53287 17.5649 6.43951 17.3781L6.18751 16.8752C6.03832 16.8752 5.89525 16.816 5.78976 16.7105C5.68427 16.605 5.62501 16.4619 5.62501 16.3127Z" fill="#2362A2"/>
</g>
<defs>
<clipPath id="clip0_1132_1850">
<rect width="18" height="18" fill="white"/>
</clipPath>
</defs>
</svg>
