<svg width="40" height="41" viewBox="0 0 40 41" fill="none" xmlns="http://www.w3.org/2000/svg">
<path fill-rule="evenodd" clip-rule="evenodd" d="M33.7249 10.1043C33.6151 10.6109 32.6259 12.1893 31.3624 13.4845L30.5384 12.8082C30.5384 12.8082 32.9014 10.7806 32.7915 9.82233C32.7915 9.82233 31.5817 9.37189 31.7465 8.18902C31.7465 8.18902 32.4057 9.25836 32.8452 8.92022C33.3945 8.58331 32.6812 7.73857 32.077 7.17461C31.5276 6.66801 31.6371 5.70975 31.6371 5.70975C31.6371 5.70975 32.2413 7.28691 33.0104 7.17461C33.3949 7.11845 32.9567 6.2725 32.9567 5.87821C32.9567 5.87821 33.6159 6.72416 34.0554 7.00493C34.4948 7.34306 34.6034 8.24517 34.3837 8.80792C34.2189 9.31574 33.7799 9.76618 33.7249 10.1043ZM19.7731 26.048C19.9379 25.9919 19.3332 26.4423 17.9599 26.2726C16.8063 26.1603 15.9274 25.8234 14.9386 25.8796C14.0048 25.9919 13.2349 26.6682 13.7842 29.5417C13.7842 29.5417 13.7855 29.7663 14.2799 29.7663C14.7742 29.7663 15.9274 30.3291 16.5866 31.5132C16.5866 31.5132 14.4992 30.1045 14.1146 30.7807C13.9498 31.0627 14.0601 31.3435 14.2799 31.457C14.5545 31.5693 10.9839 32.5276 10.7093 32.5837C10.4895 32.6399 10.3788 32.8083 10.9281 33.1465C11.4225 33.4846 11.8062 33.8227 11.6963 33.8227C11.5865 33.8227 11.0376 33.7666 11.0376 33.9351C11.0376 34.1047 10.9835 34.499 10.5441 34.499C10.1595 34.499 9.93894 34.2732 9.93894 33.9351C9.93894 33.5969 9.93851 32.978 9.49906 32.978C9.0596 32.978 8.73087 33.4846 8.73087 34.3293C8.73087 34.9495 8.07083 35.1191 7.8511 35.1191C7.63137 35.1191 7.24813 34.9495 7.24813 34.5552C7.24813 34.4429 7.02798 34.4429 6.80825 34.4429C6.58852 34.4429 7.63309 33.7104 7.96268 33.4846C8.12747 33.3723 8.12619 33.0903 8.01632 32.978C7.90646 32.8657 7.68716 32.696 7.35757 33.0342C7.02798 33.3723 6.69795 33.5969 6.36836 33.5969C6.03877 33.5969 5.70961 33.3149 5.70961 32.978C5.70961 32.6399 5.8744 32.3017 5.43495 32.0759C4.99549 31.8513 7.96268 32.2456 7.96268 31.8513C7.96268 31.457 7.57815 31.3435 7.41336 31.3435C7.24856 31.3435 6.25893 31.5132 6.25893 30.8369C6.25893 30.4988 6.53359 30.4988 6.53359 30.2729C6.53359 30.0483 6.20314 30.1045 6.20314 30.1045C6.20314 30.1045 6.91768 29.5979 7.467 30.1606C8.01632 30.6672 8.23562 31.3996 8.94974 31.3996C9.60892 31.3996 11.7521 30.7807 11.7521 28.5273C11.7521 27.0624 10.9839 25.9357 10.9839 25.7661C10.9839 25.5976 11.5869 25.8796 11.5869 25.3156C11.5869 24.6955 7.85238 24.5832 6.69881 25.7661C6.69881 25.7661 6.86361 24.3012 8.89609 24.3012C9.66514 24.3012 9.94023 24.5832 10.4346 24.4709C10.7642 24.3574 9.71964 23.9631 9.82951 23.1745C9.82951 23.1745 10.4883 23.9631 11.3122 23.9631C11.5869 23.9631 12.0826 22.4994 14.5545 22.4994C17.0265 22.4994 17.3552 22.5544 17.52 22.6679C17.6848 22.7802 17.4651 23.1183 17.7946 23.2306C18.1242 23.3442 19.0585 24.0766 19.0585 24.4709C19.0585 24.8652 18.453 24.9775 18.8375 25.5414C19.222 26.1042 19.6083 26.1042 19.7731 26.048ZM34.6583 17.9425C34.7682 17.8082 34.9343 17.619 35.4287 17.7655C35.4287 17.7655 34.4948 18.2733 34.6047 19.4C34.7146 20.5268 33.7245 23.288 31.0878 23.6823C31.0878 23.6823 30.7037 26.2177 27.6824 25.9357C27.6824 25.9357 30.2084 28.5273 30.0986 31.4558C30.0986 31.4558 28.4519 26.612 24.5517 24.527C24.5517 24.527 24.3324 24.4697 24.4423 24.9213C24.4972 25.3156 24.2221 26.1603 24.0024 26.5546C23.7827 26.9501 23.7269 30.7807 26.9679 31.6816C27.7369 31.8513 28.5064 31.6255 28.5064 31.6255C28.5064 31.6255 28.012 32.4702 26.3091 32.414C25.8147 32.414 25.8688 33.1465 26.528 33.1465C26.6928 33.1465 25.6491 37.0344 24.3307 38.4981C24.056 38.7288 24.2775 38.8081 24.4423 38.8606C24.4972 38.8716 24.5517 38.8826 24.5517 38.8936C24.6616 38.8936 25.2663 39.2305 25.5409 39.4563C25.5409 39.4563 25.156 39.4002 25.101 39.5125C25.101 39.5332 25.101 39.5711 25.101 39.6187C25.0461 39.8311 24.9367 40.2449 24.4423 40.2449C23.838 40.2449 23.6719 39.626 23.6719 39.2879C23.6719 38.9497 23.3432 38.9497 23.1784 39.0059C23.0685 39.0059 22.6295 39.1744 22.5197 39.7383C22.4098 40.3023 22.245 40.9773 21.6957 40.9773C21.1464 40.9773 20.9811 40.5831 20.9811 40.2449C20.9811 40.1668 20.9258 40.1729 20.8159 40.1863C20.706 40.201 20.5958 40.2229 20.376 40.1326C20.376 40.1326 22.0236 39.1744 21.8588 38.7801C21.694 38.387 21.4193 38.4981 21.3094 38.6116C21.1996 38.7239 20.4872 39.2305 20.0477 39.2879C19.5533 39.344 19.3332 38.6678 19.6078 38.1612C19.6628 38.0659 19.6083 38.0244 19.4984 37.9659C19.3885 37.9207 19.2787 37.8645 19.2237 37.7669C19.2237 37.7669 21.5296 38.0489 21.4747 37.541C21.4197 37.0344 20.9811 37.0906 20.7065 37.1467C20.4867 37.2029 19.8267 37.1468 19.8267 36.6402C19.8267 36.4912 19.937 36.4058 19.9919 36.324C20.0469 36.2508 20.1014 36.1824 20.1014 36.0762C20.1014 35.9077 19.8825 35.7942 19.8825 35.7942C19.8825 35.7942 20.3207 35.6819 20.7601 35.8504C20.9798 35.9187 21.2013 36.1555 21.421 36.4168C21.7506 36.8111 22.1888 37.2591 22.5733 37.2591C23.2325 37.2591 23.7814 36.2459 23.7814 34.2732C23.7814 32.3774 23.7264 32.3567 23.2321 32.1577C23.1771 32.1492 23.1776 32.1418 23.1226 32.1321C23.1226 32.0893 23.1226 32.0124 23.1226 31.927C23.1226 31.7927 23.0685 31.6389 22.9038 31.5693C22.6291 31.4558 22.1901 32.0198 22.245 34.3867C22.245 34.3867 21.8043 33.5408 21.7493 32.3579C21.7493 32.1894 21.7493 32.0283 21.7493 31.8879C21.8043 31.6511 21.8043 31.4704 21.7493 31.3996C21.6944 31.3545 21.5858 31.4643 21.421 31.6328C21.2013 31.8843 20.8704 32.2676 20.376 32.4702C20.376 32.4702 21.0348 31.4558 21.0348 30.7807C21.0348 30.561 20.9258 30.4487 20.8159 30.2961C20.5412 29.9799 20.1014 29.4917 20.1014 27.5129C20.1014 26.8427 20.2125 26.4728 20.3224 26.1176C20.4322 25.7856 20.4855 25.4645 20.4855 24.9213C20.4855 23.9325 18.7839 22.8144 17.6852 22.0978C17.5204 21.9977 17.3552 21.9049 17.2453 21.8219C16.3115 21.0895 15.3223 20.1325 15.1575 19.9079C15.1026 19.8163 15.3218 19.5343 15.5416 19.2035C15.9261 18.7116 16.4213 18.1146 16.1467 17.879C15.7622 17.5568 15.4879 17.9852 15.2133 18.4284C15.1583 18.5297 15.103 18.6298 15.048 18.7238C14.7185 19.2316 14.2249 19.682 14.0052 19.7943C13.8953 19.8358 13.9494 19.5905 13.9494 19.2645C14.0043 18.7128 14.0593 17.9352 13.6747 17.9352C13.0705 17.9352 13.0156 18.5553 13.1254 18.7799C13.1804 18.8727 13.125 18.88 12.9602 18.891C12.7405 18.9081 12.356 18.9325 12.1362 19.2316V19.245C11.8616 19.5795 11.5328 19.9774 11.368 20.9772C11.368 20.9772 11.0384 20.1886 11.368 19.3439C11.4779 19.1181 10.3248 19.2877 8.23734 19.7943C7.90775 19.8505 7.90689 20.0763 7.90689 20.6391C7.96182 21.3153 7.96182 21.6535 7.90689 21.9355C7.85196 22.1039 7.74166 21.6535 7.74166 21.5412C7.74166 21.5106 7.6863 21.5253 7.57644 21.5485C7.24685 21.6095 6.69881 21.7194 6.69881 21.1469C6.69881 20.6977 6.80868 20.6134 6.97347 20.5414C7.0284 20.4865 7.1387 20.4389 7.1387 20.246C7.1387 19.7943 6.86361 19.5123 6.42415 19.5123C6.20442 19.5123 5.98384 19.7101 5.81904 19.9262C5.59931 20.185 5.32594 20.4706 4.94142 20.4706C4.28223 20.4706 4.17108 19.964 4.17108 19.7943C4.17108 19.7101 4.17194 19.6393 4.22687 19.5697C4.22687 19.4989 4.28052 19.4281 4.28052 19.3439C4.28052 19.1742 4.11572 19.0057 4.00586 19.0057C3.95093 19.0057 4.06165 18.8934 4.33631 18.8934C4.39124 18.8934 4.44531 18.9008 4.55518 18.9118C5.04957 18.9606 6.0937 19.0607 6.0937 18.4992C6.0937 18.2843 5.87483 18.2977 5.60017 18.3173C5.54524 18.3234 5.43538 18.3295 5.32551 18.3295C5.32551 18.3234 5.27101 18.3185 5.21608 18.3124C4.77662 18.2636 4.06165 18.183 4.06165 17.4286C4.06165 16.9769 4.61097 16.8646 4.61097 16.8646C4.61097 16.8646 4.72169 16.6949 4.66676 16.4142C4.55689 16.1322 5.7654 17.2028 6.04006 17.4847C6.25979 17.7655 6.53445 17.597 6.58938 17.5409C6.64431 17.4847 6.80868 17.2028 6.42415 16.9769C5.9847 16.7523 5.92848 16.5265 5.92848 16.1322C5.92848 15.7379 6.31429 15.6818 6.42415 15.6818C6.53402 15.6818 6.58766 15.3436 6.4778 15.1178C6.36793 14.8932 7.02712 15.3998 7.30178 16.076C7.35671 16.192 7.35757 16.358 7.35757 16.5387C7.35757 16.9708 7.35714 17.4945 8.01632 17.6532C8.01632 17.6532 8.18198 17.7094 8.89609 17.4286C9.50034 17.1466 12.9602 15.9076 12.9602 15.9076C12.9602 15.9076 13.6207 15.7379 13.4559 15.3998C13.2361 15.0616 12.6306 15.0055 11.8616 15.6256C11.0925 16.2457 12.8516 13.034 14.5545 13.034C14.8292 13.034 14.9386 12.8656 14.9386 12.752C14.9386 12.6397 14.8833 12.4139 14.2241 12.4139C13.5649 12.4139 12.5765 13.1463 12.192 13.8226C12.1371 13.8629 12.0809 13.8153 11.971 13.7359C11.8062 13.5992 11.532 13.3709 11.0376 13.3709C10.2136 13.3709 9.7205 13.5406 9.61064 13.5968C9.44584 13.5968 9.99516 12.8082 10.9839 12.8082C11.1487 12.8082 11.1487 12.5274 10.7093 12.2454C10.4895 12.0599 10.0488 11.4874 9.66428 11.0516C9.49949 10.8233 9.33512 10.6317 9.28019 10.5548C9.06046 10.3289 8.62057 11.1749 8.29098 11.8512C8.23605 12.0196 8.12576 11.6253 8.12576 11.4569C8.12576 11.4019 8.07254 11.3702 7.96268 11.3287C7.74295 11.2408 7.35757 11.1053 7.35757 10.6109C7.35757 9.82233 7.96268 10.0482 8.23734 10.1605C8.56693 10.2728 8.89523 9.87848 8.8403 9.54035C8.78537 9.20343 8.45535 8.80914 7.8511 8.86529C7.30178 8.92145 6.58938 8.52715 6.58938 7.96319C6.58938 7.55059 6.80868 7.47002 6.97347 7.41264C7.0284 7.39189 7.08377 7.37358 7.1387 7.34306C7.24856 7.23076 7.24727 6.89262 7.19234 6.78032C7.13741 6.66679 7.79702 7.11845 8.18155 7.62505C8.621 8.07549 8.7313 8.18902 8.89609 8.0755C9.06089 7.96319 9.11496 7.62505 8.56564 7.17461C7.96139 6.72416 8.07125 6.1602 8.29098 5.82206C8.34591 5.78178 8.45664 5.79886 8.62143 5.81961C8.89609 5.85746 9.22611 5.90751 9.33598 5.6536C9.44584 5.20316 9.61064 6.49833 9.61064 7.11846C9.61064 7.5689 9.7205 7.6812 9.8853 7.6812C10.0501 7.6812 10.214 7.62505 10.1042 6.89262C9.9943 6.17729 10.2698 6.06498 10.4346 6.00761C10.4346 6.0015 10.4346 5.99662 10.4346 5.99052C10.5994 5.93437 10.8179 5.93436 11.0376 6.10404C11.2024 6.2725 11.4775 5.99052 11.4775 5.7659C11.4775 5.7659 11.7513 6.38603 11.4217 6.89262C11.3118 7.01225 11.2032 7.12211 11.0934 7.23442C10.7638 7.60063 10.3793 7.99004 10.8187 8.80914L13.9494 12.0196C13.9494 12.0196 14.17 12.0196 14.0052 11.795C13.8404 11.5692 13.8953 11.231 14.0052 11.1187C14.0052 11.1187 15.0485 12.0758 17.1359 11.8512C19.2782 11.6253 20.1026 10.1605 19.7731 9.82233C19.7731 9.82233 18.8937 10.7806 17.9599 10.7806C17.081 10.7806 16.5866 9.87848 16.8612 9.25958C16.8612 9.25958 17.2994 9.76618 18.0135 9.76618C18.7826 9.76618 19.498 8.92144 19.3332 8.471C19.2782 8.35992 19.0023 8.43927 18.5628 8.57721C17.9037 8.79083 16.805 9.14606 15.2669 9.14606C12.74 9.14606 12.3555 6.66679 14.1683 5.59745C14.1683 5.59745 12.7413 8.471 16.0373 8.471C17.7951 8.471 19.1122 7.96319 19.1122 7.96319C19.1122 7.96319 18.9486 7.0623 17.9599 7.0623C17.026 7.0623 16.7518 8.01934 16.7518 8.01934C16.7518 8.01934 15.9819 7.51274 16.1467 6.72416C16.1467 6.63993 16.2566 6.61918 16.4213 6.59233C16.6411 6.5496 16.9707 6.49345 16.9707 6.10404C16.9707 5.87821 16.8067 5.87821 16.7518 5.87821C16.587 5.87821 16.5857 5.98197 16.5308 6.08939C16.4759 6.20658 16.4209 6.32865 16.2561 6.32865C15.9265 6.32865 15.9274 5.42777 16.5866 5.42777C16.5866 5.42777 17.1359 5.48514 17.1359 5.20316C17.1359 4.92117 18.0152 4.58304 19.7731 4.58304C21.476 4.58304 21.9703 5.08963 21.9703 5.08963C21.9703 5.08963 22.1338 4.47073 22.848 4.47073C23.617 4.47073 23.6719 5.03348 23.6719 5.147C23.6719 5.40335 23.5616 5.5889 23.5067 5.71707C23.4518 5.78666 23.4531 5.83915 23.4531 5.87821C23.4531 5.90506 23.5076 6.00028 23.5625 6.14677C23.8921 6.6204 24.5517 7.62261 24.5517 8.52716C24.5517 9.71003 24.7706 11.1187 25.8692 12.2454C25.8692 12.2454 25.0465 12.1319 24.4423 11.513C24.2775 11.3995 24.2217 14.0472 24.6611 14.837C24.8259 15.0055 24.4959 14.9493 24.2213 14.6112C24.1114 14.5135 24.0573 14.4159 24.0024 14.328C23.8376 14.1156 23.7269 13.9679 23.6719 14.0472V14.0533C23.5621 14.2071 22.793 15.8148 23.6719 17.2589C23.9466 17.597 22.8492 17.1466 22.5197 16.4703C22.4098 16.2457 21.8051 18.3856 22.6291 20.0763C22.7939 20.4144 21.8605 19.682 21.6957 19.4C21.5309 19.1181 21.2549 19.7382 21.7493 20.6952C22.2437 21.7096 22.6836 22.6117 23.0132 22.9499C23.2878 23.1794 23.7827 23.4357 24.2771 23.6469C24.4418 23.7458 24.6607 23.8349 24.7706 23.9069C24.8255 23.9399 24.9367 23.9899 24.9916 24.051C25.5958 24.4184 26.8035 25.2033 27.9571 25.2033C29.3304 25.2033 29.9891 24.245 29.9891 23.7946C29.9891 23.7787 29.935 23.7653 29.7703 23.7421C28.8913 23.5981 25.704 23.0841 25.704 19.4C25.704 16.3019 28.9999 14.4427 28.9999 14.4427L29.6608 15.1752C29.6608 15.1752 26.749 17.0905 26.749 19.4C26.749 21.7096 28.8351 22.8363 30.0986 22.8363C30.0986 22.8363 30.814 21.4276 27.8476 20.0763C27.8476 20.0763 29.3308 19.682 30.0449 20.8649C30.2646 21.1469 30.3741 20.9772 30.429 20.8649C30.4839 20.7514 30.9792 20.3021 31.5834 20.5268C31.5834 20.5268 30.5942 21.3153 31.1436 22.724C31.1436 22.724 33.6155 22.1601 33.6155 19.5697C33.6155 17.6923 32.0229 16.347 30.7595 15.2984C30.2651 14.8993 29.8797 14.5428 29.605 14.2169C29.3304 13.9056 29.0548 13.6053 28.7253 13.2965C27.9013 12.4334 26.9674 11.5008 26.8026 10.0482C26.8026 10.0482 25.8692 9.76618 25.8692 8.52716C25.8692 7.28691 27.2979 6.04789 27.4077 5.99052C27.4627 5.97465 27.4069 6.07963 27.352 6.23466C27.2421 6.61064 27.079 7.28691 27.4635 7.28691C27.9579 7.28691 28.945 6.10404 28.9999 5.87821C29.1098 5.6536 29.1115 6.49833 28.5622 7.23076C28.3424 7.48101 28.1219 7.70562 27.9571 7.90948C27.5725 8.30377 27.2438 8.62481 27.4635 8.92144C27.7931 9.37189 28.6163 8.58331 28.781 8.24517C28.9458 7.90704 28.6154 9.54035 27.6266 9.99079C27.6266 9.99079 27.0786 10.7232 30.3196 13.5968C31.8577 14.7796 32.516 15.4559 32.7357 15.6818C32.7357 15.6818 32.9567 15.5694 32.9567 15.1178C32.9567 14.6673 33.1198 14.2169 33.3945 14.0472C33.3945 14.0472 33.0649 16.4703 33.6691 16.6949C33.8889 16.7523 33.9447 16.5265 33.9996 16.1896C34.0545 15.9076 34.2738 15.5694 34.3837 15.6256C34.3837 15.6256 33.8889 17.7094 34.4931 18.0475C34.548 18.067 34.6034 18.0121 34.6583 17.9425ZM17.52 15.1752C17.6848 15.7379 17.5208 16.4703 17.0265 17.3151C16.9715 17.4286 16.9711 17.6532 17.1359 17.7094C17.1908 17.7655 17.2462 17.7655 17.3011 17.7655C17.411 17.7655 17.5208 17.7094 17.5758 17.597C18.1251 16.5839 18.3998 15.6817 18.1251 14.9493C17.9603 14.2169 17.4106 13.9349 17.4106 13.9349C17.3007 13.8788 17.0814 13.8788 17.0265 14.0472C16.9715 14.2169 17.0252 14.3854 17.0801 14.4989C17.0801 14.4989 17.4101 14.7235 17.52 15.1752ZM19.2237 12.1893C19.1688 12.3578 19.1684 12.5274 19.3332 12.5836C19.3332 12.586 19.3332 12.5921 19.3332 12.6007C19.498 12.7215 20.3219 13.3868 19.8825 15.3436C19.8276 15.5133 19.9366 15.6256 20.1014 15.6818H20.1572C20.267 15.6818 20.3769 15.5694 20.4318 15.4559C20.9811 13.089 19.8276 12.2442 19.6078 12.0977C19.6078 12.0868 19.6078 12.0794 19.6078 12.0758C19.498 12.0196 19.3336 12.0758 19.2237 12.1893ZM21.2558 12.5836C21.2558 12.752 21.3652 12.8656 21.6399 12.8656C21.7498 12.8656 21.9145 12.752 21.9145 12.5836C21.9695 11.4569 21.915 10.8367 21.8051 10.4425C22.2446 10.4425 22.6282 10.3863 22.848 10.1605C22.9578 10.0482 23.0132 9.93464 23.0132 9.76618C23.0132 8.9776 21.4755 8.35748 20.9811 8.18902C20.7614 8.13287 20.5962 8.18902 20.5412 8.35748C20.4863 8.52716 20.5417 8.69561 20.7065 8.75177C21.5854 9.03375 22.3531 9.54035 22.4081 9.76618C22.2982 9.82233 22.0802 9.87848 21.421 9.87848H21.3094C21.1996 9.87848 21.0897 9.93464 21.0348 10.0482C20.9798 10.1605 21.0356 10.2728 21.0906 10.3863C21.0906 10.3863 21.4206 10.8929 21.2558 12.5836ZM16.8612 20.246C18.6191 19.4 18.6744 18.1036 18.6744 18.1036C18.6744 17.9352 18.5646 17.7667 18.3998 17.7667C18.18 17.7667 18.0135 17.879 18.0135 18.0475C18.0135 18.0475 17.9599 19.0057 16.5866 19.7382C16.4767 19.7943 16.4222 19.964 16.4771 20.1325C16.5321 20.246 16.6419 20.3021 16.7518 20.3021C16.7518 20.3021 16.8063 20.246 16.8612 20.246ZM15.9278 14.7809C16.0926 14.7235 16.0913 14.4989 15.9815 14.3854C15.9265 14.2169 15.7064 14.2169 15.5416 14.273C15.5416 14.2779 15.5416 14.2865 15.5416 14.2999C15.3218 14.4501 14.3889 15.1629 14.2241 16.9208C14.2241 17.0905 14.3339 17.2589 14.4987 17.2589H14.5545C14.6644 17.2589 14.8292 17.1466 14.8292 16.9769C14.994 15.3436 15.8729 14.7809 15.9278 14.7809ZM19.8267 5.70975C19.8267 5.70975 20.1572 5.76591 20.1572 5.5413C20.1572 5.31546 19.8825 5.31546 19.8825 5.31546H18.5092C18.1796 5.31546 18.1787 5.48514 18.1787 5.48514C18.1787 5.70975 18.3998 5.87821 18.3998 5.87821H19.1679C19.1679 5.87821 19.4426 5.82328 19.4426 5.93436C19.4426 6.10404 18.5628 6.21635 18.5628 6.21635C18.6727 6.38603 18.7834 6.55448 19.1679 6.55448C19.8271 6.55448 19.8267 5.70975 19.8267 5.70975ZM19.3332 20.1886C20.8713 19.4 20.9266 17.9352 20.8717 17.879C20.8717 17.7094 20.706 17.597 20.5412 17.597C20.3765 17.597 20.2666 17.7094 20.2666 17.879C20.2666 17.9352 20.2121 19.0619 19.0585 19.682C18.9486 19.7382 18.8941 19.9079 18.9491 20.0763C19.004 20.1886 19.1139 20.246 19.2237 20.246C19.2237 20.246 19.2782 20.1886 19.3332 20.1886ZM17.0265 2.3296C17.0265 2.10377 16.8599 1.93531 16.6402 1.93531L16.4213 1.25903C16.8608 1.31519 18.0135 1.82179 18.0135 2.3296C18.0135 2.8362 17.4642 2.89235 17.4642 2.89235C17.4642 3.56862 18.0693 3.56862 18.0693 3.56862H18.7839C19.2782 3.56862 19.2237 2.89235 19.2237 2.89235C19.2237 2.89235 18.5628 2.78004 18.5628 2.44191C18.5628 1.76563 19.6615 0.977051 19.6615 0.977051C19.6615 0.977051 20.8717 1.76563 20.8717 2.27345C20.8717 2.8362 20.1014 2.89235 20.1014 2.89235C20.2662 3.45632 20.8717 3.51247 20.8717 3.51247H21.4747C22.1338 3.51247 21.8588 2.8362 21.8588 2.8362C21.8588 2.8362 21.3652 2.78004 21.3652 2.38575C21.3652 1.65332 23.069 1.31519 23.069 1.31519L22.9038 1.93531C22.684 1.93531 22.5197 2.10377 22.5197 2.3296C22.5197 2.44191 22.5737 2.55543 22.7385 2.61159L22.2986 4.18875H17.1895L16.8054 2.66774C16.9153 2.61159 17.0265 2.49806 17.0265 2.3296ZM19.7173 1.93531C19.4975 1.93531 19.3332 2.10377 19.3332 2.3296C19.3332 2.55543 19.4975 2.72389 19.7173 2.72389C19.937 2.72389 20.1014 2.55543 20.1014 2.3296C20.1014 2.10377 19.937 1.93531 19.7173 1.93531Z" fill="#2362A2"/>
</svg>
