<svg width="130" height="35" viewBox="0 0 130 35" fill="none" xmlns="http://www.w3.org/2000/svg">
<g clip-path="url(#clip0_1118_323)">
<path d="M18.1654 4.66311C17.9603 4.558 17.8804 4.30631 17.9854 4.10143C18.0904 3.89634 18.342 3.81642 18.5455 3.92142C18.7504 4.02642 18.8321 4.278 18.7253 4.48309H18.7271C18.6521 4.62633 18.5071 4.7097 18.3554 4.7097C18.292 4.7097 18.2253 4.69466 18.1654 4.66311ZM19.5353 4.69309C19.4071 4.50127 19.4571 4.243 19.6487 4.11481C19.8387 3.9863 20.0987 4.03635 20.2271 4.22806C20.3554 4.418 20.3054 4.67627 20.1136 4.80635C20.0437 4.85305 19.9621 4.87635 19.8821 4.87635C19.7471 4.87635 19.617 4.81303 19.5353 4.69309ZM13.5955 4.62633C13.5387 4.40306 13.6737 4.17624 13.897 4.11961C14.1204 4.06299 14.3471 4.19808 14.4037 4.42145C14.4603 4.64472 14.3238 4.87143 14.1021 4.92806C14.0671 4.93642 14.0337 4.94144 13.9987 4.94144C13.812 4.94144 13.6437 4.8146 13.5955 4.62633ZM15.3254 4.91135C15.1804 4.73311 15.207 4.46972 15.387 4.3247C15.5653 4.17969 15.827 4.208 15.972 4.38645C16.117 4.56647 16.0904 4.82797 15.912 4.97299C15.8337 5.03473 15.7405 5.06639 15.6487 5.06639C15.527 5.06639 15.4071 5.013 15.3254 4.91135ZM16.5621 5.54302C16.4621 5.33469 16.5503 5.08645 16.7571 4.98636C16.9654 4.88805 17.2137 4.97643 17.3137 5.18299C17.412 5.39132 17.3254 5.63966 17.1171 5.73797C17.0587 5.76629 16.9987 5.77966 16.9371 5.77966C16.7821 5.77966 16.6337 5.69305 16.5621 5.54302ZM12.4087 5.61636C12.3704 5.38964 12.5236 5.17463 12.7503 5.13639C12.9771 5.09805 13.1921 5.25131 13.2303 5.4797C13.2688 5.70642 13.1155 5.92143 12.8887 5.958C12.8655 5.96312 12.842 5.96469 12.8188 5.96469C12.6187 5.96469 12.4421 5.81967 12.4087 5.61636ZM22.2688 6.71975C22.0604 6.62143 21.9721 6.37309 22.0704 6.16476C22.1687 5.95644 22.417 5.86805 22.6254 5.96636C22.8337 6.06467 22.9221 6.31302 22.8238 6.52134C22.752 6.67137 22.6037 6.75966 22.447 6.75966C22.3871 6.75966 22.3271 6.74639 22.2688 6.71975ZM11.117 6.70637C10.9587 6.53973 10.9653 6.27478 11.1321 6.11639C11.2987 5.958 11.562 5.96469 11.7204 6.13133C11.8788 6.29808 11.8721 6.56136 11.7055 6.72142C11.6253 6.798 11.522 6.83467 11.4187 6.83467C11.3087 6.83467 11.1987 6.79131 11.117 6.70637ZM23.6737 7.73475C23.4921 7.59297 23.4603 7.33136 23.6021 7.14978C23.7437 6.96799 24.0054 6.93633 24.1871 7.078C24.3671 7.21978 24.4004 7.48129 24.2587 7.66308C24.177 7.76808 24.0538 7.82314 23.9304 7.82314C23.8404 7.82314 23.7504 7.79482 23.6737 7.73475ZM7.76028 8.19811C7.63867 8.00315 7.69874 7.74645 7.8938 7.62473C8.09032 7.50312 8.34703 7.56299 8.46864 7.75961C8.58879 7.95478 8.52871 8.21148 8.33365 8.33299C8.26533 8.37467 8.18864 8.39473 8.11362 8.39473C7.9753 8.39473 7.83874 8.32473 7.76028 8.19811ZM26.2421 8.44467C26.0787 8.28148 26.0804 8.01809 26.2437 7.85626C26.4071 7.69306 26.6705 7.69473 26.8321 7.85814C26.9953 8.02133 26.9937 8.28472 26.8305 8.44812C26.7488 8.52805 26.6438 8.56806 26.537 8.56806C26.4304 8.56806 26.3238 8.52805 26.2421 8.44467ZM6.26698 9.26472C6.12876 9.08136 6.16543 8.81964 6.34868 8.68132C6.53215 8.54299 6.79365 8.57799 6.93198 8.76145C7.07031 8.94627 7.03374 9.20799 6.85028 9.34642C6.77547 9.40305 6.68709 9.42969 6.60027 9.42969C6.47364 9.42969 6.34868 9.37306 6.26698 9.26472ZM30.8121 9.41799C30.787 9.1896 30.9537 8.98472 31.1821 8.96142C31.412 8.93635 31.6171 9.10309 31.6404 9.33305C31.6638 9.56143 31.4972 9.76632 31.2688 9.78972C31.2538 9.79139 31.2405 9.79139 31.2253 9.79139C31.0153 9.79139 30.8337 9.633 30.8121 9.41799ZM26.062 9.81469C25.9021 9.64794 25.9071 9.38466 26.0737 9.2246C26.2387 9.06642 26.5038 9.07133 26.6621 9.23797C26.822 9.40305 26.8171 9.668 26.6505 9.82639C26.5688 9.90464 26.4654 9.94309 26.362 9.94309C26.252 9.94309 26.1437 9.89973 26.062 9.81469ZM2.807 10.148C2.74368 9.92627 2.87209 9.69632 3.09358 9.633C3.31371 9.56802 3.54544 9.69632 3.60876 9.91802C3.67207 10.1397 3.54367 10.3697 3.32374 10.433C3.2854 10.4447 3.24528 10.4497 3.20871 10.4497C3.02703 10.4497 2.86039 10.3298 2.807 10.148ZM32.4737 10.5448V10.543C32.3137 10.3781 32.3171 10.1147 32.482 9.95479C32.6486 9.79473 32.912 9.79808 33.072 9.96472C33.232 10.1281 33.2288 10.3931 33.0637 10.5531C32.982 10.6314 32.877 10.6714 32.7737 10.6697C32.6638 10.6697 32.5554 10.6282 32.4737 10.5448ZM33.9571 10.7497C33.9221 10.5214 34.0787 10.3098 34.3054 10.2748C34.5337 10.2398 34.7454 10.3963 34.7804 10.623C34.8154 10.8496 34.6588 11.063 34.4321 11.098C34.4104 11.1014 34.3887 11.1031 34.3687 11.1031C34.1654 11.1031 33.9887 10.9547 33.9571 10.7497ZM27.2186 11.168C27.0821 10.9831 27.1203 10.7213 27.3054 10.5847C27.4905 10.4481 27.752 10.4864 27.8887 10.6714C28.0255 10.8563 27.987 11.118 27.802 11.2547C27.7271 11.3098 27.6404 11.3364 27.5538 11.3364C27.4269 11.3364 27.3003 11.278 27.2186 11.168ZM30.8353 11.1114C30.8104 10.8814 30.9753 10.6763 31.2055 10.653C31.4337 10.6282 31.6387 10.7948 31.6638 11.023C31.6871 11.2514 31.522 11.4564 31.2937 11.4813C31.2787 11.4831 31.2638 11.4831 31.2487 11.4831C31.0388 11.4831 30.857 11.3247 30.8353 11.1114ZM1.57374 11.493C1.3837 11.3629 1.33533 11.1031 1.46697 10.9131H1.4654C1.59704 10.7247 1.85698 10.6763 2.04546 10.8064C2.2354 10.938 2.2821 11.1963 2.15203 11.3865C2.072 11.5032 1.94025 11.5665 1.80861 11.5665C1.72712 11.5665 1.64542 11.543 1.57374 11.493ZM0.126937 11.473C-0.0429438 11.3197 -0.0563165 11.0563 0.0970567 10.8846C0.251997 10.7147 0.51528 10.7014 0.68537 10.8563C0.856922 11.0096 0.870295 11.273 0.715355 11.4446C0.633654 11.5347 0.520399 11.5814 0.407041 11.5814C0.306952 11.5814 0.207071 11.5464 0.126937 11.473ZM34.7638 11.9647C34.6354 11.7748 34.6836 11.5163 34.8754 11.3865C35.0653 11.2564 35.3238 11.3063 35.4536 11.4965C35.5837 11.688 35.5338 11.9463 35.3421 12.0763C35.2704 12.1247 35.1904 12.148 35.1088 12.148C34.9753 12.148 34.8437 12.083 34.7638 11.9647ZM29.7221 12.2163C29.5437 12.0713 29.517 11.808 29.662 11.6298H29.6638C29.8087 11.4513 30.072 11.4263 30.2488 11.5713C30.427 11.718 30.4537 11.9797 30.3071 12.158C30.2254 12.258 30.1053 12.3114 29.9854 12.3114C29.892 12.3114 29.7987 12.2796 29.7221 12.2163ZM28.0653 12.7863C27.9254 12.6031 27.9604 12.3414 28.1438 12.2029C28.3254 12.063 28.5872 12.098 28.7272 12.2814C28.8671 12.4631 28.8321 12.7246 28.6487 12.8648C28.5738 12.923 28.4838 12.9497 28.397 12.9497C28.2704 12.9497 28.147 12.8947 28.0653 12.7863ZM0.518728 13.1431C0.358773 12.9764 0.362012 12.7131 0.527086 12.553C0.692056 12.3931 0.957012 12.3963 1.11707 12.5614C1.27703 12.7265 1.27358 12.9898 1.10871 13.1497C1.02701 13.2296 0.922116 13.2681 0.818683 13.2681C0.708668 13.2681 0.600325 13.2264 0.518728 13.1431ZM35.9604 13.4396C35.8037 13.2713 35.8137 13.008 35.9838 12.8514C36.1521 12.6947 36.4155 12.7047 36.572 12.8747C36.7288 13.043 36.717 13.3063 36.5488 13.463C36.4686 13.5363 36.3671 13.5731 36.2653 13.5731C36.1537 13.5731 36.0421 13.528 35.9604 13.4396ZM37.8821 13.7414C37.6521 13.7347 37.4705 13.543 37.4772 13.3147C37.4838 13.0831 37.6738 12.903 37.9053 12.9081H37.9037C38.1337 12.9147 38.3172 13.1064 38.3105 13.3364C38.3038 13.5614 38.1188 13.7414 37.8938 13.7414H37.8821ZM39.5888 14.2347C39.3605 14.2014 39.2021 13.9898 39.2354 13.763C39.267 13.5347 39.4787 13.3763 39.7071 13.4097C39.9336 13.4414 40.092 13.653 40.0605 13.8797C40.0304 14.0881 39.8521 14.238 39.6471 14.238C39.6288 14.238 39.6088 14.2364 39.5888 14.2347ZM40.9387 14.1647C40.8436 13.9548 40.9355 13.708 41.1455 13.6114C41.3538 13.5163 41.6004 13.6081 41.697 13.8164C41.7921 14.0264 41.7005 14.273 41.4921 14.3697C41.4355 14.3948 41.377 14.408 41.3188 14.408C41.1604 14.408 41.0087 14.3164 40.9387 14.1647ZM1.84037 14.4281C1.67874 14.2647 1.67874 13.9997 1.84194 13.8381C2.00377 13.6763 2.26873 13.6763 2.43036 13.8397C2.59365 14.0013 2.59198 14.2663 2.43036 14.4281C2.34865 14.5096 2.24209 14.5497 2.13531 14.5497C2.02864 14.5497 1.92207 14.5096 1.84037 14.4281ZM42.0054 15.8164C41.8221 15.6781 41.7837 15.4164 41.9222 15.2331C42.0605 15.0481 42.322 15.0114 42.507 15.1497H42.5055C42.6904 15.2882 42.7272 15.5497 42.5888 15.7331C42.507 15.8429 42.3821 15.8998 42.2554 15.8998C42.1687 15.8998 42.0804 15.873 42.0054 15.8164ZM2.22704 16.0597C2.02195 15.9581 1.93545 15.7081 2.037 15.5013C2.13865 15.2947 2.38867 15.2097 2.59543 15.3114C2.80198 15.4131 2.88703 15.6614 2.78537 15.8697C2.7137 16.0163 2.56534 16.1014 2.41197 16.1014C2.34865 16.1014 2.28701 16.088 2.22704 16.0597ZM1.83201 17.5579C1.71698 17.3597 1.78374 17.1047 1.98194 16.988C2.18201 16.8731 2.43704 16.9396 2.55197 17.138C2.66867 17.3365 2.60034 17.5929 2.40204 17.7081C2.33528 17.7464 2.26371 17.7647 2.19204 17.7647C2.0487 17.7647 1.91037 17.6915 1.83201 17.5579ZM43.2955 16.7813C43.0954 16.6697 43.0237 16.4147 43.1354 16.2147C43.2488 16.0147 43.5021 15.943 43.7037 16.0547C43.9037 16.168 43.9754 16.4214 43.8637 16.6231H43.8621C43.787 16.7596 43.6454 16.8363 43.4988 16.8363C43.4304 16.8363 43.3604 16.818 43.2955 16.7813ZM42.7955 18.2812C42.5954 18.1697 42.5236 17.9147 42.6353 17.7148C42.7488 17.5147 43.002 17.4431 43.2037 17.5547C43.4038 17.668 43.4753 17.9214 43.3636 18.1231H43.3621C43.2871 18.2596 43.1454 18.3363 42.9988 18.3363C42.9304 18.3363 42.8605 18.3181 42.7955 18.2812ZM41.2955 18.9263C41.0954 18.8147 41.0237 18.5598 41.1353 18.3597C41.2488 18.1597 41.5021 18.0881 41.7037 18.1997C41.9038 18.313 41.9753 18.5665 41.8637 18.7681H41.8621C41.7871 18.9047 41.6454 18.9813 41.4988 18.9813C41.4304 18.9813 41.3604 18.9631 41.2955 18.9263ZM2.7487 19.1597V19.1614C2.62531 18.9663 2.68361 18.7097 2.877 18.5864C3.07195 18.4631 3.32865 18.5198 3.45204 18.7147H3.45361C3.57543 18.9081 3.5187 19.1664 3.32374 19.2898C3.25541 19.333 3.17695 19.3547 3.10204 19.3547C2.96371 19.3547 2.82862 19.2863 2.7487 19.1597ZM39.9704 20.0315C39.9088 19.8097 40.0404 19.5815 40.2621 19.5197V19.5214C40.4838 19.4596 40.7138 19.5914 40.7736 19.813C40.8354 20.0347 40.7037 20.2631 40.482 20.3247C40.4454 20.3346 40.4071 20.3398 40.3721 20.3398C40.1887 20.3398 40.0205 20.2179 39.9704 20.0315ZM4.20867 20.5497C4.00703 20.4396 3.93201 20.1864 4.04203 19.9847C4.15371 19.7814 4.40707 19.7081 4.60871 19.8181C4.81046 19.9297 4.8837 20.1829 4.77368 20.3847C4.697 20.523 4.55533 20.6015 4.40707 20.6015C4.34031 20.6015 4.27198 20.5847 4.20867 20.5497ZM5.71701 21.1664C5.58537 20.9781 5.6304 20.718 5.82034 20.5847C6.00861 20.453 6.26698 20.4997 6.39862 20.688H6.4004C6.53215 20.8764 6.48534 21.1364 6.29707 21.2682C6.22362 21.3197 6.14036 21.343 6.05865 21.343C5.92691 21.343 5.79704 21.2814 5.71701 21.1664ZM38.9737 21.0815C38.9471 20.8531 39.112 20.6464 39.3404 20.6197C39.5688 20.5948 39.7755 20.758 39.802 20.9864V20.988C39.8271 21.2163 39.6638 21.4214 39.4337 21.4482C39.4187 21.4497 39.4021 21.4514 39.3871 21.4514C39.177 21.4514 38.9971 21.293 38.9737 21.0815ZM38.5871 22.868C38.4654 22.6714 38.5255 22.4148 38.7204 22.293C38.9171 22.1715 39.1738 22.2313 39.2955 22.4263C39.4171 22.6214 39.357 22.8797 39.1604 23.0013C39.0921 23.043 39.0171 23.0646 38.9421 23.0646C38.802 23.0646 38.6655 22.9946 38.5871 22.868ZM8.10213 24.0548C7.93538 23.8947 7.9287 23.6314 8.08709 23.4647C8.24527 23.298 8.50865 23.2914 8.67529 23.4497C8.84204 23.6081 8.84862 23.8714 8.69034 24.0397C8.60874 24.1247 8.49873 24.168 8.38871 24.168C8.28538 24.168 8.18195 24.1314 8.10213 24.0548ZM37.3553 24.1447C37.1671 24.0114 37.1238 23.7514 37.257 23.5647C37.3903 23.3763 37.6505 23.3314 37.8388 23.4647C38.0255 23.5997 38.0704 23.8597 37.9355 24.0464C37.8554 24.1613 37.7272 24.2214 37.5971 24.2214C37.5122 24.2214 37.4288 24.1963 37.3553 24.1447ZM21.447 24.9097C21.2204 24.868 21.0704 24.6515 21.112 24.4247C21.1537 24.1981 21.3704 24.0481 21.5971 24.0897C21.8238 24.1314 21.9737 24.348 21.932 24.5748C21.8954 24.7747 21.7205 24.9164 21.5221 24.9164C21.4971 24.9164 21.472 24.9147 21.447 24.9097ZM18.0321 24.6781C18.0137 24.4481 18.1855 24.2481 18.4154 24.2297C18.6437 24.2115 18.8455 24.383 18.8636 24.6113C18.882 24.8414 18.7104 25.0414 18.4803 25.0597C18.4686 25.0614 18.4587 25.0614 18.447 25.0614C18.232 25.0614 18.0504 24.8963 18.0321 24.6781ZM23.0887 25.2064C22.8871 25.0947 22.8153 24.8414 22.927 24.6396C23.0388 24.4397 23.292 24.3664 23.4937 24.4781C23.6954 24.5897 23.767 24.8447 23.6553 25.0448C23.5787 25.183 23.437 25.2596 23.2905 25.2596C23.222 25.2596 23.1537 25.243 23.0887 25.2064ZM9.63868 25.223C9.43871 25.1098 9.36704 24.8563 9.48197 24.6547C9.59365 24.4548 9.84868 24.3846 10.0487 24.4981C10.2487 24.6113 10.3187 24.8665 10.207 25.0664C10.1288 25.2014 9.98868 25.278 9.84367 25.278C9.77367 25.278 9.70367 25.2596 9.63868 25.223ZM35.8704 25.168C35.7854 24.9547 35.8888 24.7131 36.1021 24.6264C36.3154 24.5414 36.5587 24.6448 36.6437 24.8581C36.7304 25.0713 36.627 25.3147 36.4138 25.3998C36.3621 25.4198 36.3105 25.4297 36.2587 25.4297C36.092 25.4297 35.9371 25.3314 35.8704 25.168ZM34.0321 25.2147C34.0303 24.9847 34.2154 24.7965 34.4454 24.7948C34.6754 24.793 34.8637 24.978 34.8654 25.2081C34.8688 25.4381 34.6836 25.6248 34.4537 25.6281H34.4504C34.2205 25.6281 34.0354 25.4431 34.0321 25.2147ZM32.5805 26.1031C32.4053 25.953 32.3853 25.6896 32.5354 25.5146C32.6855 25.3397 32.947 25.3197 33.1221 25.4698C33.2971 25.6196 33.3172 25.883 33.1687 26.0564V26.058C33.0853 26.153 32.9686 26.203 32.8521 26.203C32.7554 26.203 32.6588 26.1698 32.5805 26.1031ZM27.7005 26.2214C27.6121 26.0097 27.7137 25.7647 27.927 25.6782C28.1387 25.5898 28.3836 25.6914 28.4705 25.9047C28.5586 26.1164 28.4571 26.3613 28.2437 26.4482C28.1921 26.4698 28.1387 26.4797 28.0854 26.4797C27.9221 26.4797 27.7653 26.3831 27.7005 26.2214ZM17.9437 26.613C17.8019 26.4313 17.8337 26.1698 18.0154 26.028C18.197 25.8865 18.4587 25.918 18.6004 26.0996C18.742 26.2815 18.7104 26.543 18.5287 26.6848C18.452 26.7431 18.362 26.773 18.272 26.773C18.1487 26.773 18.0254 26.718 17.9437 26.613ZM29.6022 26.8697C29.3871 26.7881 29.2804 26.5465 29.3636 26.3315C29.4453 26.1164 29.6871 26.0097 29.9021 26.093C30.1171 26.1747 30.2237 26.4164 30.1403 26.6314C30.077 26.7965 29.9187 26.898 29.752 26.898C29.702 26.898 29.6521 26.8897 29.6022 26.8697ZM25.9103 26.6063C25.8837 26.3764 26.0471 26.1698 26.2771 26.1447C26.5054 26.118 26.7121 26.2815 26.7386 26.5097C26.7654 26.738 26.6003 26.9447 26.3721 26.9714C26.3554 26.973 26.3404 26.9746 26.3238 26.9746C26.1154 26.9746 25.9354 26.8181 25.9103 26.6063ZM31.4771 27.3781C31.2472 27.3564 31.0805 27.1531 31.1037 26.9231C31.1254 26.6947 31.3287 26.5264 31.5587 26.5497H31.557C31.787 26.5713 31.9536 26.7747 31.932 27.0048C31.9121 27.2198 31.7304 27.3798 31.5188 27.3798C31.5054 27.3798 31.4905 27.3798 31.4771 27.3781ZM12.0354 27.8496C11.8554 27.7065 11.8254 27.4431 11.9686 27.2647C12.112 27.0831 12.3754 27.0547 12.5554 27.1981C12.7354 27.3413 12.7637 27.603 12.6204 27.7831C12.5388 27.8865 12.4171 27.9397 12.2954 27.9397C12.2036 27.9397 12.112 27.9114 12.0354 27.8496ZM16.7754 27.938C16.5738 27.8231 16.5054 27.5697 16.6187 27.3696C16.732 27.1698 16.987 27.0997 17.1871 27.2131C17.3871 27.3281 17.4571 27.5814 17.342 27.7815C17.2653 27.9164 17.1253 27.9931 16.9803 27.9931C16.9103 27.9931 16.8404 27.9747 16.7754 27.938ZM15.4488 28.6264C15.2271 28.5614 15.1004 28.3298 15.1654 28.1098C15.2303 27.8881 15.4622 27.7614 15.682 27.8264C15.9037 27.8913 16.0303 28.1231 15.9654 28.343C15.912 28.5247 15.7453 28.6431 15.5653 28.6431C15.527 28.6431 15.487 28.6381 15.4488 28.6264ZM13.4386 28.508C13.4071 28.2796 13.5671 28.0697 13.7954 28.0398C14.0236 28.008 14.2319 28.1681 14.2637 28.3963C14.2955 28.6231 14.1353 28.8347 13.9071 28.8648C13.8887 28.8681 13.8703 28.8696 13.8503 28.8696C13.6454 28.8696 13.467 28.7164 13.4386 28.508Z" fill="white"/>
<path d="M6.37517 29.1523C5.70797 29.1523 5.0482 28.8436 4.62653 28.2622C3.92611 27.2967 4.13997 25.9472 5.10399 25.2453L15.7646 17.5006L5.10399 9.7544C4.13997 9.05409 3.92611 7.70298 4.62653 6.73751C5.32684 5.7736 6.67794 5.55973 7.64332 6.26004L20.7078 15.7535C21.2667 16.1601 21.598 16.8093 21.598 17.5006C21.598 18.1919 21.2667 18.8411 20.7078 19.2478L7.64332 28.7397C7.25926 29.0183 6.81502 29.1523 6.37517 29.1523Z" fill="white"/>
<path d="M24.4292 35.0195C23.5195 35.0195 22.673 34.4397 22.3763 33.527L19.3744 24.2896C19.0054 23.1555 19.6275 21.937 20.7617 21.5695C21.8958 21.2005 23.1143 21.821 23.4818 22.9551L26.4836 32.1925C26.8511 33.3266 26.2306 34.5451 25.0964 34.9125C24.875 34.9848 24.6506 35.0195 24.4292 35.0195Z" fill="white"/>
<path d="M35.5889 19.6592H25.877C24.6842 19.6592 23.7173 18.6922 23.7173 17.4993C23.7173 16.308 24.6842 15.341 25.877 15.341H35.5889C36.7818 15.341 37.7487 16.308 37.7487 17.4993C37.7487 18.6922 36.7818 19.6592 35.5889 19.6592Z" fill="white"/>
<path d="M21.429 13.5371C21.2076 13.5371 20.9832 13.5024 20.7618 13.4317C19.6262 13.0627 19.0056 11.8442 19.3746 10.71L22.3764 1.47266C22.7454 0.338558 23.9639 -0.281934 25.0965 0.087081C26.2307 0.454529 26.8512 1.67305 26.4837 2.80716L23.4819 12.0445C23.1852 12.9573 22.3387 13.5371 21.429 13.5371Z" fill="white"/>
<path d="M49.5324 15.2305H48.1203C48.0298 15.2305 47.9851 15.1837 47.9851 15.0899L48.0558 11.1279L47.9851 7.16647C47.9851 7.07275 48.0298 7.02542 48.1203 7.02542H50.0538C50.1287 7.02542 50.1828 7.05719 50.2182 7.11956L53.5064 12.9272L53.4357 10.4542V7.16647C53.4357 7.07275 53.4825 7.02542 53.5761 7.02542H54.9893C55.0746 7.02542 55.1173 7.07275 55.1173 7.16647L55.0537 11.1279L55.1173 15.0899C55.1173 15.1837 55.0746 15.2305 54.9893 15.2305H52.984C52.9144 15.2305 52.8592 15.1992 52.8206 15.1369L49.5918 9.37554L49.6729 12.1946V15.0899C49.6729 15.1837 49.626 15.2305 49.5324 15.2305Z" fill="white"/>
<path d="M59.8176 8.22107L58.7457 11.7258H60.9435L59.8176 8.22107ZM61.7167 5.71893L58.8446 6.45153C58.7593 6.47075 58.7021 6.43962 58.675 6.3574L58.47 5.77148C58.443 5.68937 58.4721 5.62898 58.5575 5.5899L61.3067 4.42341C61.4003 4.38444 61.4607 4.40993 61.4878 4.49989L61.8103 5.5431C61.8415 5.63681 61.8103 5.69501 61.7167 5.71893ZM61.1485 7.1368L63.8436 15.0723C63.879 15.1779 63.8426 15.2305 63.7322 15.2305H62.186C62.1069 15.2305 62.0528 15.1936 62.0215 15.1191L61.394 13.1441H58.3118L57.7135 15.1135C57.6906 15.1915 57.6375 15.2305 57.5553 15.2305H56.0204C55.9112 15.2305 55.8738 15.1779 55.9092 15.0723L58.6687 7.1368C58.6968 7.06293 58.7468 7.02542 58.8217 7.02542H60.9956C61.0705 7.02542 61.1204 7.06293 61.1485 7.1368Z" fill="white"/>
<path d="M66.4514 8.32669L66.4046 10.8819H68.1986C68.5731 10.8819 68.8999 10.7861 69.1767 10.5947C69.4545 10.4032 69.5929 10.0847 69.5929 9.63935C69.5929 9.19407 69.467 8.86413 69.2152 8.64932C68.9633 8.43441 68.6085 8.32669 68.1518 8.32669H66.4514ZM69.4878 11.9953L71.4744 15.0665C71.5055 15.1135 71.5128 15.1524 71.4972 15.1837C71.4816 15.2149 71.4452 15.2305 71.3859 15.2305H69.6221C69.544 15.2305 69.4878 15.1992 69.4524 15.1369L68.4088 13.4022L67.6065 12.1831H66.4222L66.4753 15.0899C66.4753 15.1837 66.4306 15.2305 66.34 15.2305H64.7698C64.6792 15.2305 64.6345 15.1837 64.6345 15.0899L64.7053 11.1279L64.6345 7.16647C64.6345 7.07275 64.6792 7.02542 64.7698 7.02542H68.0809C69.108 7.02542 69.9041 7.24138 70.4691 7.67319C71.0342 8.10499 71.3162 8.74868 71.3162 9.60456C71.3162 10.2101 71.157 10.7159 70.8385 11.1222C70.5201 11.5286 70.0696 11.8194 69.4878 11.9953Z" fill="white"/>
<path d="M76.2507 14.0348C76.9885 14.0348 77.5556 13.7778 77.953 13.2643C78.3495 12.7506 78.5473 12.0462 78.5473 11.1513C78.5473 10.2528 78.3506 9.53994 77.9551 9.01233C77.5608 8.48482 76.9885 8.22101 76.2381 8.22101C75.4879 8.22101 74.9177 8.48116 74.5274 9.00041C74.1362 9.52019 73.9416 10.2371 73.9416 11.1513C73.9416 12.0421 74.1414 12.7455 74.5421 13.2611C74.9426 13.7772 75.5118 14.0348 76.2507 14.0348ZM76.2381 15.4062C75.4026 15.4062 74.6742 15.2257 74.055 14.8641C73.4358 14.503 72.9551 14.0025 72.6138 13.3636C72.2714 12.7251 72.1008 11.9874 72.1008 11.1513C72.1008 10.2804 72.2704 9.52228 72.6107 8.87765C72.951 8.23292 73.4307 7.73404 74.0499 7.38018C74.669 7.02641 75.3985 6.84953 76.2381 6.84953C77.0706 6.84953 77.798 7.02485 78.4213 7.37453C79.0446 7.72412 79.5286 8.21997 79.872 8.86303C80.2153 9.50556 80.3881 10.2684 80.3881 11.1513C80.3881 11.9874 80.2153 12.7251 79.872 13.3636C79.5286 14.0025 79.0457 14.503 78.4244 14.8641C77.8032 15.2257 77.0748 15.4062 76.2381 15.4062Z" fill="white"/>
<path d="M83.2237 11.0931L83.2944 13.9058H84.5838C84.9157 13.9058 85.2258 13.8543 85.5151 13.7508C85.8044 13.6472 86.0583 13.4869 86.2767 13.2699C86.4963 13.0531 86.6669 12.771 86.7898 12.4235C86.9136 12.0753 86.975 11.6596 86.975 11.1748C86.975 10.5265 86.8668 9.99416 86.6524 9.57792C86.437 9.16168 86.1466 8.85316 85.7794 8.65183C85.4121 8.4505 84.9979 8.3501 84.5369 8.3501H83.2944L83.2237 11.0931ZM84.49 15.2305H81.5889C81.4983 15.2305 81.4536 15.1836 81.4536 15.0899L81.5421 11.1279L81.4536 7.16636C81.4536 7.07275 81.4983 7.02542 81.5889 7.02542H84.4661C85.0561 7.02542 85.6129 7.1066 86.1363 7.26886C86.6597 7.43122 87.1228 7.68092 87.5254 8.01911C87.9282 8.35678 88.2435 8.78869 88.4724 9.31422C88.7003 9.83963 88.8148 10.464 88.8148 11.1867C88.8148 11.9135 88.6992 12.5337 88.4693 13.0473C88.2383 13.5613 87.9219 13.9781 87.5193 14.2986C87.1176 14.6191 86.6566 14.8542 86.1363 15.0046C85.617 15.1556 85.0676 15.2305 84.49 15.2305Z" fill="white"/>
<path d="M91.4287 15.2305H90.0165C89.9261 15.2305 89.8813 15.1837 89.8813 15.0899L89.9521 11.1279L89.8813 7.16647C89.8813 7.07275 89.9261 7.02542 90.0165 7.02542H91.95C92.0249 7.02542 92.079 7.05719 92.1145 7.11956L95.4027 12.9272L95.3319 10.4542V7.16647C95.3319 7.07275 95.3788 7.02542 95.4724 7.02542H96.8855C96.9709 7.02542 97.0135 7.07275 97.0135 7.16647L96.95 11.1279L97.0135 15.0899C97.0135 15.1837 96.9709 15.2305 96.8855 15.2305H94.8803C94.8106 15.2305 94.7554 15.1992 94.7169 15.1369L91.488 9.37554L91.5691 12.1946V15.0899C91.5691 15.1837 91.5223 15.2305 91.4287 15.2305Z" fill="white"/>
<path d="M100.073 15.2305H98.514C98.4245 15.2305 98.3797 15.1837 98.3797 15.0899L98.4672 11.1279L98.3797 7.16647C98.3797 7.07275 98.4245 7.02542 98.514 7.02542H100.073C100.159 7.02542 100.202 7.07275 100.202 7.16647L100.126 11.1279L100.202 15.0899C100.202 15.1837 100.159 15.2305 100.073 15.2305ZM101.093 5.71893L98.2215 6.45153C98.1352 6.47075 98.079 6.43962 98.0509 6.35739L97.8459 5.77148C97.8189 5.68926 97.848 5.62898 97.9343 5.5899L100.683 4.42341C100.776 4.38444 100.837 4.40993 100.865 4.49989L101.186 5.5431C101.217 5.63671 101.186 5.69501 101.093 5.71893Z" fill="white"/>
<path d="M51.3137 23.8678C51.6613 23.8678 51.962 23.7606 52.2138 23.5457C52.4657 23.3309 52.5916 22.977 52.5916 22.4848C52.5916 22.016 52.476 21.6701 52.2461 21.4473C52.0151 21.2247 51.6894 21.1133 51.2669 21.1133H49.808L49.7612 23.8678H51.3137ZM51.1971 19.812C52.1888 19.812 52.9568 20.0332 53.5 20.4744C54.0432 20.9162 54.3147 21.5743 54.3147 22.4495C54.3147 23.309 54.038 23.977 53.4854 24.4536C52.9329 24.9307 52.166 25.169 51.1847 25.169H49.7726L49.8257 27.8767C49.8257 27.9703 49.782 28.0171 49.6966 28.0171H48.1202C48.0296 28.0171 47.9849 27.9703 47.9849 27.8767L48.0619 23.9146L47.9849 19.9531C47.9849 19.8594 48.0296 19.812 48.1202 19.812H51.1971Z" fill="white"/>
<path d="M60.4679 28.0171H55.4751C55.3847 28.0171 55.3398 27.9703 55.3398 27.8766L55.4283 23.9146L55.3398 19.9531C55.3398 19.8594 55.3847 19.812 55.4751 19.812H57.0454C57.1317 19.812 57.1745 19.8594 57.1745 19.9531L57.1099 23.8089L57.1807 26.6924H60.4679C60.5585 26.6924 60.6032 26.7392 60.6032 26.8335V27.8766C60.6032 27.9703 60.5585 28.0171 60.4679 28.0171Z" fill="white"/>
<path d="M65.0735 21.0077L64.0016 24.5124H66.1994L65.0735 21.0077ZM66.9726 18.5056L64.1005 19.2382C64.0152 19.2574 63.958 19.2262 63.9309 19.144L63.7259 18.5581C63.6989 18.4759 63.728 18.4156 63.8133 18.3765L66.5626 17.21C66.6562 17.1711 66.7166 17.1966 66.7437 17.2865L67.0662 18.3297C67.0974 18.4234 67.0662 18.4816 66.9726 18.5056ZM66.4044 19.9234L69.0995 27.8589C69.1349 27.9645 69.0985 28.0171 68.9882 28.0171H67.4419C67.3628 28.0171 67.3087 27.9801 67.2774 27.9057L66.6499 25.9307H63.5677L62.9694 27.9001C62.9465 27.9781 62.8935 28.0171 62.8112 28.0171H61.2763C61.1671 28.0171 61.1297 27.9645 61.165 27.8589L63.9246 19.9234C63.9527 19.8496 64.0027 19.812 64.0776 19.812H66.2515C66.3264 19.812 66.3763 19.8496 66.4044 19.9234Z" fill="white"/>
<path d="M71.4389 28.0171H70.0268C69.9363 28.0171 69.8916 27.9703 69.8916 27.8766L69.9623 23.9146L69.8916 19.9531C69.8916 19.8594 69.9363 19.812 70.0268 19.812H71.9603C72.0352 19.812 72.0893 19.8438 72.1247 19.9062L75.4129 25.7138L75.3422 23.2408V19.9531C75.3422 19.8594 75.389 19.812 75.4826 19.812H76.8958C76.9811 19.812 77.0238 19.8594 77.0238 19.9531L76.9602 23.9146L77.0238 27.8766C77.0238 27.9703 76.9811 28.0171 76.8958 28.0171H74.8905C74.8209 28.0171 74.7657 27.9859 74.7271 27.9235L71.4983 22.1622L71.5794 24.9812V27.8766C71.5794 27.9703 71.5325 28.0171 71.4389 28.0171Z" fill="white"/>
<path d="M84.7314 26.8214C85.4692 26.8214 86.0363 26.5644 86.4338 26.0509C86.8302 25.5373 87.028 24.8329 87.028 23.9379C87.028 23.0394 86.8313 22.3266 86.4358 21.7989C86.0415 21.2714 85.4692 21.0076 84.7189 21.0076C83.9686 21.0076 83.3984 21.2678 83.0081 21.787C82.6169 22.3068 82.4223 23.0237 82.4223 23.9379C82.4223 24.8287 82.6221 25.5321 83.0228 26.0477C83.4233 26.5639 83.9925 26.8214 84.7314 26.8214ZM84.7189 28.1929C83.8833 28.1929 83.1549 28.0123 82.5358 27.6507C81.9166 27.2897 81.4359 26.7891 81.0945 26.1502C80.7522 25.5118 80.5815 24.7741 80.5815 23.9379C80.5815 23.067 80.7511 22.3089 81.0914 21.6643C81.4317 21.0195 81.9114 20.5207 82.5306 20.1668C83.1497 19.813 83.8792 19.6362 84.7189 19.6362C85.5513 19.6362 86.2787 19.8115 86.902 20.1611C87.5253 20.5107 88.0093 21.0066 88.3527 21.6496C88.696 22.2922 88.8688 23.055 88.8688 23.9379C88.8688 24.7741 88.696 25.5118 88.3527 26.1502C88.0093 26.7891 87.5264 27.2897 86.9052 27.6507C86.2839 28.0123 85.5555 28.1929 84.7189 28.1929Z" fill="white"/>
<path d="M91.7054 24.36L91.7761 26.7746H93.6045C93.976 26.7746 94.2871 26.6877 94.5389 26.514C94.7907 26.3402 94.9176 26.0129 94.9176 25.5322C94.9176 25.2429 94.8573 25.0124 94.7387 24.8407C94.619 24.669 94.4598 24.5457 94.2611 24.4713C94.0612 24.3975 93.8428 24.36 93.6045 24.36H91.7054ZM91.7761 21.0545L91.7054 23.1175H93.6045C93.952 23.1175 94.2246 23.0306 94.4223 22.8568C94.619 22.6831 94.7179 22.4301 94.7179 22.0977C94.7179 21.7345 94.6086 21.4697 94.3901 21.3038C94.1705 21.1378 93.9093 21.0545 93.6045 21.0545H91.7761ZM93.6399 28.0171H90.0706C89.98 28.0171 89.9353 27.9703 89.9353 27.8767L90.0175 23.9146L89.9353 19.9531C89.9353 19.8594 89.98 19.812 90.0706 19.812H93.5805C94.1393 19.812 94.6388 19.8828 95.0779 20.0233C95.5181 20.1638 95.8646 20.3839 96.1185 20.6826C96.3724 20.9817 96.4993 21.3672 96.4993 21.8402C96.4993 22.3324 96.3766 22.7241 96.13 23.015C95.8844 23.3064 95.5348 23.5202 95.081 23.657C95.6326 23.7777 96.0436 24.0078 96.3151 24.3454C96.5868 24.6836 96.7221 25.079 96.7221 25.5322C96.7221 25.9776 96.6367 26.3579 96.464 26.6721C96.2922 26.9864 96.0612 27.2434 95.7699 27.4427C95.4786 27.642 95.1497 27.7877 94.7824 27.8792C94.4151 27.9713 94.0342 28.0171 93.6399 28.0171Z" fill="white"/>
<path d="M99.259 28.0171H97.8469C97.7564 28.0171 97.7117 27.9703 97.7117 27.8766L97.7824 23.9146L97.7117 19.9531C97.7117 19.8594 97.7564 19.812 97.8469 19.812H99.7803C99.8552 19.812 99.9094 19.8438 99.9448 19.9062L103.233 25.7138L103.162 23.2408V19.9531C103.162 19.8594 103.209 19.812 103.303 19.812H104.716C104.801 19.812 104.844 19.8594 104.844 19.9531L104.78 23.9146L104.844 27.8766C104.844 27.9703 104.801 28.0171 104.716 28.0171H102.711C102.641 28.0171 102.586 27.9859 102.547 27.9235L99.3183 22.1622L99.3995 24.9812V27.8766C99.3995 27.9703 99.3526 28.0171 99.259 28.0171Z" fill="white"/>
<path d="M110.067 26.8214C110.804 26.8214 111.372 26.5644 111.769 26.0509C112.165 25.5373 112.363 24.8329 112.363 23.9379C112.363 23.0394 112.166 22.3266 111.771 21.7989C111.377 21.2714 110.804 21.0076 110.054 21.0076C109.304 21.0076 108.734 21.2678 108.343 21.787C107.952 22.3068 107.758 23.0237 107.758 23.9379C107.758 24.8287 107.957 25.5321 108.358 26.0477C108.759 26.5639 109.328 26.8214 110.067 26.8214ZM110.054 28.1929C109.219 28.1929 108.49 28.0123 107.871 27.6507C107.252 27.2897 106.771 26.7891 106.43 26.1502C106.087 25.5118 105.917 24.7741 105.917 23.9379C105.917 23.067 106.086 22.3089 106.427 21.6643C106.767 21.0195 107.247 20.5207 107.866 20.1668C108.485 19.813 109.214 19.6362 110.054 19.6362C110.887 19.6362 111.614 19.8115 112.237 20.1611C112.861 20.5107 113.344 21.0066 113.688 21.6496C114.031 22.2922 114.204 23.055 114.204 23.9379C114.204 24.7741 114.031 25.5118 113.688 26.1502C113.344 26.7891 112.862 27.2897 112.24 27.6507C111.619 28.0123 110.891 28.1929 110.054 28.1929Z" fill="white"/>
<path d="M116.951 27.9057L114.343 19.9707C114.308 19.8651 114.346 19.812 114.455 19.812H116.154C116.236 19.812 116.287 19.8515 116.306 19.9296L118.264 26.6633L120.169 19.9296C120.192 19.8515 120.243 19.812 120.321 19.812H121.792C121.905 19.812 121.944 19.8651 121.91 19.9707L119.36 27.9057C119.336 27.9801 119.284 28.0171 119.202 28.0171H117.109C117.031 28.0171 116.978 27.9801 116.951 27.9057Z" fill="white"/>
<path d="M125.085 25.2392L122.349 19.9765C122.294 19.8672 122.328 19.812 122.448 19.812H124.172C124.25 19.812 124.304 19.8475 124.336 19.9177L126.011 23.6919L127.699 19.9177C127.731 19.8475 127.786 19.812 127.864 19.812H129.434C129.559 19.812 129.592 19.8672 129.534 19.9765L126.791 25.2392L126.855 27.8766C126.855 27.9703 126.813 28.0171 126.726 28.0171H125.15C125.056 28.0171 125.012 27.9703 125.016 27.8766L125.085 25.2392Z" fill="white"/>
</g>
<defs>
<clipPath id="clip0_1118_323">
<rect width="129.552" height="35" fill="white"/>
</clipPath>
</defs>
</svg>
