<svg width="125" height="35" viewBox="0 0 125 35" fill="none" xmlns="http://www.w3.org/2000/svg">
<g clip-path="url(#clip0_12055_12161)">
<path d="M47.4613 32.4919H2.52045V2.5311H47.4613V32.4919ZM1.62166 1.66081V33.3987H48.36V1.66081H1.62166Z" fill="white"/>
<path d="M24.0333 9.05908L24.9816 8.36707L25.93 9.05908L25.569 7.93985L26.5323 7.24784H25.3449L24.9816 6.11513L24.6182 7.2491L23.4316 7.24784L24.3942 7.93985L24.0333 9.05908Z" fill="white"/>
<path d="M19.1258 10.3774L20.0741 9.68543L21.0219 10.3774L20.6615 9.25821L21.6242 8.56619H20.4368L20.0736 7.43222L19.7103 8.56746L18.5235 8.56619L19.486 9.25821L19.1258 10.3774Z" fill="white"/>
<path d="M16.4833 11.0311L16.1199 12.1663L14.9333 12.1651L15.8959 12.8571L15.535 13.9763L16.4833 13.2843L17.4315 13.9763L17.0707 12.8571L18.0332 12.1651H16.8466L16.4833 11.0311Z" fill="white"/>
<path d="M15.1661 18.1857L16.1139 18.8777L15.7535 17.7586L16.7161 17.0664H15.5294L15.1661 15.9325L14.8027 17.069L13.6156 17.0664L14.5787 17.7586L14.2178 18.8777L15.1661 18.1857Z" fill="white"/>
<path d="M16.8466 21.9825L16.4833 20.8485L16.1199 21.9838L14.9333 21.9825L15.8959 22.6745L15.535 23.7937L16.4833 23.1004L17.4315 23.7937L17.0707 22.6745L18.0332 21.9825H16.8466Z" fill="white"/>
<path d="M20.4443 25.5801L20.0809 24.4474L19.7182 25.5813L18.531 25.5801L19.4935 26.2721L19.1333 27.3914L20.0815 26.6993L21.0291 27.3914L20.669 26.2721L21.6315 25.5801H20.4443Z" fill="white"/>
<path d="M25.3456 26.8838L24.9822 25.7499L24.6195 26.885L23.4323 26.8838L24.3948 27.5758L24.0346 28.6951L24.9828 28.003L25.9305 28.6951L25.5696 27.5758L26.5328 26.8838H25.3456Z" fill="white"/>
<path d="M30.2469 25.5801L29.8841 24.4474L29.5201 25.5813L28.3342 25.5801L29.2961 26.2721L28.9359 27.3914L29.8841 26.6993L30.8324 27.3914L30.4709 26.2721L31.4341 25.5801H30.2469Z" fill="white"/>
<path d="M33.8457 21.9825L33.4817 20.8485L33.1178 21.9838L31.9318 21.9825L32.895 22.6745L32.5335 23.7937L33.4817 23.1004L34.43 23.7937L34.0685 22.6745L35.0317 21.9825H33.8457Z" fill="white"/>
<path d="M36.3354 17.0528H35.1482L34.7842 15.9188L34.4215 17.054L33.2342 17.0528L34.1974 17.7448L33.837 18.864L34.7842 18.1707L35.7324 18.864L35.3722 17.7448L36.3354 17.0528Z" fill="white"/>
<path d="M32.5333 13.9614L33.4816 13.2694L34.43 13.9614L34.0685 12.8422L35.0317 12.1514H33.8456L33.4816 11.0175L33.1178 12.1527L31.9317 12.1514L32.8948 12.8422L32.5333 13.9614Z" fill="white"/>
<path d="M29.8978 7.43345L29.535 8.56868L28.3478 8.56615L29.3097 9.25943L28.9495 10.3787L29.899 9.68538L30.846 10.3787L30.4858 9.25943L31.449 8.56615H30.2605L29.8978 7.43345Z" fill="white"/>
<path d="M52.9822 9.19775V2.50517H57.5702V3.6374H54.3334V5.22157H57.1273V6.35364H54.3334V9.19775H52.9822Z" fill="white"/>
<path d="M58.6749 9.19775V4.34954H59.9576V9.19775H58.6749ZM58.6749 3.69223V2.50517H59.9576V3.69223H58.6749Z" fill="white"/>
<path d="M65.6825 9.19775H64.3997V6.72349C64.3997 6.19993 64.3723 5.86145 64.3175 5.70758C64.2626 5.55403 64.1737 5.43455 64.0505 5.34929C63.9272 5.2642 63.7789 5.22157 63.6053 5.22157C63.3832 5.22157 63.1838 5.28242 63.0073 5.40412C62.8308 5.52598 62.7099 5.68714 62.6444 5.88807C62.5788 6.08884 62.5462 6.46028 62.5462 7.00192V9.19775H61.2635V4.34954H62.4549V5.06184C62.8778 4.51387 63.4104 4.24004 64.0527 4.24004C64.3357 4.24004 64.5943 4.29107 64.8288 4.39296C65.063 4.49501 65.2404 4.62495 65.3606 4.78326C65.4808 4.94156 65.5644 5.1211 65.6117 5.32188C65.6589 5.52281 65.6825 5.81042 65.6825 6.18471V9.19775Z" fill="white"/>
<path d="M69.6587 6.86947C69.4943 6.9243 69.234 6.98959 68.8779 7.06581C68.5218 7.14187 68.2892 7.21635 68.1796 7.2894C68.0122 7.40809 67.9284 7.55879 67.9284 7.74134C67.9284 7.92088 67.9953 8.07618 68.1293 8.20691C68.2632 8.33796 68.4336 8.40325 68.6405 8.40325C68.8717 8.40325 69.0926 8.32718 69.3024 8.17506C69.4579 8.05938 69.5596 7.91787 69.6084 7.75053C69.6419 7.64088 69.6587 7.4325 69.6587 7.12507V6.86947ZM67.9422 5.82852L66.7779 5.61856C66.9088 5.14998 67.1342 4.80294 67.4536 4.57776C67.7733 4.35258 68.248 4.23992 68.8779 4.23992C69.4501 4.23992 69.8761 4.30758 70.1562 4.44307C70.4361 4.5784 70.6334 4.75049 70.7473 4.95887C70.8616 5.16741 70.9186 5.5501 70.9186 6.1071L70.9048 7.60443C70.9048 8.03054 70.9254 8.34478 70.9665 8.54713C71.0077 8.74949 71.0844 8.96643 71.197 9.19763H69.9279C69.8943 9.11253 69.8534 8.98624 69.8048 8.81874C69.7834 8.74268 69.7683 8.69245 69.759 8.66804C69.5398 8.88118 69.3056 9.04091 69.056 9.1474C68.8065 9.25389 68.5402 9.30713 68.2571 9.30713C67.7579 9.30713 67.3647 9.1718 67.077 8.90083C66.7895 8.63001 66.6456 8.28773 66.6456 7.87382C66.6456 7.59983 66.7111 7.35564 66.842 7.14108C66.9727 6.92652 67.156 6.76219 67.392 6.64794C67.628 6.534 67.9679 6.43433 68.4124 6.34892C69.0118 6.23641 69.4273 6.13135 69.6587 6.03405V5.90617C69.6587 5.6596 69.5977 5.48386 69.4761 5.3788C69.3543 5.2739 69.1245 5.22145 68.7866 5.22145C68.5585 5.22145 68.3805 5.26629 68.2526 5.35614C68.1247 5.44583 68.0213 5.60334 67.9422 5.82852Z" fill="white"/>
<path d="M76.5932 9.19775H75.3103V6.72349C75.3103 6.19993 75.2829 5.86145 75.2282 5.70758C75.1734 5.55403 75.0843 5.43455 74.9611 5.34929C74.8379 5.2642 74.6894 5.22157 74.5159 5.22157C74.2938 5.22157 74.0944 5.28242 73.9179 5.40412C73.7415 5.52598 73.6204 5.68714 73.555 5.88807C73.4896 6.08884 73.4569 6.46028 73.4569 7.00192V9.19775H72.1741V4.34954H73.3656V5.06184C73.7886 4.51387 74.3212 4.24004 74.9634 4.24004C75.2464 4.24004 75.5051 4.29107 75.7394 4.39296C75.9738 4.49501 76.1511 4.62495 76.2714 4.78326C76.3914 4.94156 76.4752 5.1211 76.5224 5.32188C76.5695 5.52281 76.5932 5.81042 76.5932 6.18471V9.19775Z" fill="white"/>
<path d="M82.1217 5.78288L80.857 6.01107C80.8144 5.75864 80.7177 5.56832 80.5672 5.4406C80.4165 5.31272 80.2208 5.24886 79.9806 5.24886C79.6609 5.24886 79.4061 5.35915 79.216 5.57973C79.0257 5.80047 78.9306 6.16954 78.9306 6.68676C78.9306 7.26199 79.0271 7.66829 79.2204 7.90567C79.4137 8.14305 79.673 8.26174 79.9988 8.26174C80.2422 8.26174 80.4417 8.19265 80.5968 8.05399C80.7521 7.91566 80.8616 7.67748 80.9255 7.33964L82.1854 7.5542C82.0547 8.13259 81.8035 8.56916 81.4323 8.86438C81.0608 9.1596 80.5634 9.30713 79.9394 9.30713C79.2302 9.30713 78.665 9.08354 78.2435 8.63619C77.822 8.18869 77.6114 7.56941 77.6114 6.7782C77.6114 5.9778 77.8228 5.35455 78.2459 4.90864C78.6688 4.46288 79.241 4.23992 79.9623 4.23992C80.5526 4.23992 81.0222 4.36701 81.3706 4.62102C81.7191 4.8752 81.9694 5.26249 82.1217 5.78288Z" fill="white"/>
<path d="M84.1119 6.7736C84.1119 7.25438 84.226 7.62265 84.4543 7.87826C84.6825 8.13402 84.9639 8.26174 85.2988 8.26174C85.6336 8.26174 85.9143 8.13402 86.1412 7.87826C86.3678 7.62265 86.4812 7.25137 86.4812 6.76441C86.4812 6.28965 86.3678 5.92439 86.1412 5.66879C85.9143 5.41319 85.6336 5.28531 85.2988 5.28531C84.9639 5.28531 84.6825 5.41319 84.4543 5.66879C84.226 5.92439 84.1119 6.29266 84.1119 6.7736ZM82.7971 6.70514C82.7971 6.27903 82.9022 5.86655 83.1121 5.46786C83.3223 5.06932 83.6197 4.76491 84.0046 4.55494C84.3895 4.34498 84.8196 4.23992 85.2943 4.23992C86.0277 4.23992 86.6288 4.47809 87.0975 4.95443C87.5661 5.43078 87.8005 6.03246 87.8005 6.75982C87.8005 7.49335 87.5639 8.10137 87.0907 8.58358C86.6174 9.0661 86.0217 9.30713 85.3034 9.30713C84.859 9.30713 84.4351 9.20682 84.032 9.00589C83.6287 8.80496 83.3223 8.51053 83.1121 8.12261C82.9022 7.73437 82.7971 7.26199 82.7971 6.70514Z" fill="white"/>
<path d="M90.1376 9.19775L88.1838 4.34954H89.5306L90.4436 6.82396L90.7084 7.65019C90.7783 7.44023 90.8227 7.30173 90.8409 7.2347C90.8835 7.09779 90.9292 6.96087 90.9777 6.82396L91.9001 4.34954H93.2193L91.2928 9.19775H90.1376Z" fill="white"/>
<path d="M95.292 3.75597L95.9217 2.39111H97.36L96.1045 3.75597H95.292ZM96.6798 6.86947C96.5155 6.9243 96.2552 6.98959 95.8991 7.06581C95.543 7.14187 95.3102 7.21635 95.2007 7.2894C95.0332 7.40809 94.9496 7.55879 94.9496 7.74134C94.9496 7.92088 95.0164 8.07618 95.1503 8.20691C95.2842 8.33796 95.4546 8.40325 95.6617 8.40325C95.8929 8.40325 96.1136 8.32718 96.3236 8.17506C96.4789 8.05938 96.5808 7.91787 96.6294 7.75053C96.6629 7.64088 96.6798 7.4325 96.6798 7.12507V6.86947ZM94.9634 5.82852L93.7991 5.61856C93.9298 5.14998 94.1552 4.80294 94.4748 4.57776C94.7943 4.35258 95.269 4.23992 95.8991 4.23992C96.4711 4.23992 96.8973 4.30758 97.1773 4.44307C97.4573 4.5784 97.6544 4.75049 97.7685 4.95887C97.8826 5.16741 97.9398 5.5501 97.9398 6.1071L97.926 7.60443C97.926 8.03054 97.9466 8.34478 97.9876 8.54713C98.0287 8.74949 98.1055 8.96643 98.2182 9.19763H96.9491C96.9155 9.11253 96.8744 8.98624 96.8259 8.81874C96.8046 8.74268 96.7893 8.69245 96.78 8.66804C96.561 8.88118 96.3266 9.04091 96.0772 9.1474C95.8276 9.25389 95.5612 9.30713 95.2782 9.30713C94.7791 9.30713 94.3857 9.1718 94.0981 8.90083C93.8105 8.63001 93.6668 8.28773 93.6668 7.87382C93.6668 7.59983 93.7321 7.35564 93.863 7.14108C93.9937 6.92652 94.1772 6.76219 94.4132 6.64794C94.649 6.534 94.989 6.43433 95.4334 6.34892C96.033 6.23641 96.4485 6.13135 96.6798 6.03405V5.90617C96.6798 5.6596 96.6188 5.48386 96.4971 5.3788C96.3754 5.2739 96.1457 5.22145 95.8078 5.22145C95.5795 5.22145 95.4015 5.26629 95.2738 5.35614C95.1459 5.44583 95.0424 5.60334 94.9634 5.82852Z" fill="white"/>
<path d="M103.614 9.19775H102.331V6.72349C102.331 6.19993 102.304 5.86145 102.249 5.70758C102.194 5.55403 102.106 5.43455 101.982 5.34929C101.859 5.2642 101.711 5.22157 101.537 5.22157C101.315 5.22157 101.116 5.28242 100.939 5.40412C100.763 5.52598 100.642 5.68714 100.576 5.88807C100.511 6.08884 100.478 6.46028 100.478 7.00192V9.19775H99.1953V4.34954H100.387V5.06184C100.81 4.51387 101.342 4.24004 101.984 4.24004C102.267 4.24004 102.526 4.29107 102.761 4.39296C102.995 4.49501 103.172 4.62495 103.292 4.78326C103.413 4.94156 103.496 5.1211 103.543 5.32188C103.591 5.52281 103.614 5.81042 103.614 6.18471V9.19775Z" fill="white"/>
<path d="M105.933 6.7736C105.933 7.25438 106.047 7.62265 106.276 7.87826C106.504 8.13402 106.785 8.26174 107.12 8.26174C107.455 8.26174 107.736 8.13402 107.962 7.87826C108.189 7.62265 108.303 7.25137 108.303 6.76441C108.303 6.28965 108.189 5.92439 107.962 5.66879C107.736 5.41319 107.455 5.28531 107.12 5.28531C106.785 5.28531 106.504 5.41319 106.276 5.66879C106.047 5.92439 105.933 6.29266 105.933 6.7736ZM104.618 6.70514C104.618 6.27903 104.723 5.86655 104.933 5.46786C105.144 5.06932 105.441 4.76491 105.826 4.55494C106.211 4.34498 106.641 4.23992 107.116 4.23992C107.849 4.23992 108.45 4.47809 108.919 4.95443C109.387 5.43078 109.622 6.03246 109.622 6.75982C109.622 7.49335 109.385 8.10137 108.912 8.58358C108.439 9.0661 107.843 9.30713 107.125 9.30713C106.68 9.30713 106.256 9.20682 105.853 9.00589C105.45 8.80496 105.144 8.51053 104.933 8.12261C104.723 7.73437 104.618 7.26199 104.618 6.70514Z" fill="white"/>
<path d="M52.9732 20.417V13.7244H57.9355V14.8566H54.3246V16.3403H57.6845V17.4678H54.3246V19.2894H58.0632V20.417H52.9732Z" fill="white"/>
<path d="M60.5329 20.417L58.579 15.5688H59.9258L60.8389 18.043L61.1037 18.8693C61.1735 18.6593 61.2179 18.521 61.2361 18.4539C61.2786 18.317 61.3242 18.1801 61.3729 18.043L62.2952 15.5688H63.6145L61.6879 20.417H60.5329Z" fill="white"/>
<path d="M65.6278 20.417H64.3449V15.5688H65.5364V16.2581C65.7403 15.9326 65.9237 15.7181 66.0866 15.6144C66.2495 15.5109 66.4342 15.4593 66.6412 15.4593C66.9334 15.4593 67.2148 15.5399 67.4857 15.7013L67.0885 16.8197C66.8724 16.6796 66.6716 16.6096 66.4861 16.6096C66.3064 16.6096 66.1542 16.6592 66.0295 16.7581C65.9047 16.8569 65.8066 17.0357 65.7349 17.2945C65.6635 17.5532 65.6278 18.0949 65.6278 18.9197V20.417Z" fill="white"/>
<path d="M69.056 17.9929C69.056 18.4738 69.1701 18.842 69.3986 19.0977C69.6267 19.3534 69.9081 19.4812 70.2431 19.4812C70.5778 19.4812 70.8584 19.3534 71.0853 19.0977C71.3121 18.842 71.4255 18.4708 71.4255 17.9839C71.4255 17.5091 71.3121 17.1439 71.0853 16.8883C70.8584 16.6327 70.5778 16.5048 70.2431 16.5048C69.9081 16.5048 69.6267 16.6327 69.3986 16.8883C69.1701 17.1439 69.056 17.5121 69.056 17.9929ZM67.7414 17.9245C67.7414 17.4985 67.8465 17.086 68.0563 16.6873C68.2664 16.2888 68.5638 15.9844 68.9489 15.7744C69.3337 15.5643 69.7637 15.4594 70.2385 15.4594C70.9719 15.4594 71.5729 15.6974 72.0417 16.1739C72.5102 16.6501 72.7448 17.2519 72.7448 17.9793C72.7448 18.7128 72.5082 19.3207 72.0348 19.803C71.5615 20.2854 70.9658 20.5266 70.2475 20.5266C69.8032 20.5266 69.3793 20.4261 68.9763 20.2253C68.573 20.0244 68.2664 19.73 68.0563 19.3421C67.8465 18.9538 67.7414 18.4815 67.7414 17.9245Z" fill="white"/>
<path d="M74.9818 17.9108C74.9818 18.4556 75.0897 18.8581 75.3059 19.1183C75.5219 19.3785 75.7852 19.5085 76.0956 19.5085C76.3939 19.5085 76.6419 19.3893 76.8398 19.1503C77.0376 18.9114 77.1366 18.5195 77.1366 17.9747C77.1366 17.4665 77.0344 17.089 76.8306 16.8426C76.6267 16.596 76.3741 16.4728 76.0728 16.4728C75.7592 16.4728 75.4992 16.5938 75.2922 16.8356C75.0851 17.0778 74.9818 17.4361 74.9818 17.9108ZM73.7125 15.5689H74.9088V16.281C75.0639 16.0376 75.274 15.8397 75.5386 15.6876C75.8034 15.5354 76.0971 15.4594 76.4197 15.4594C76.9827 15.4594 77.4607 15.68 77.8532 16.1213C78.2459 16.5626 78.442 17.1775 78.442 17.9657C78.442 18.7752 78.2443 19.4043 77.8487 19.8532C77.4531 20.3022 76.9735 20.5266 76.4107 20.5266C76.1427 20.5266 75.9001 20.4732 75.6825 20.3667C75.4648 20.2604 75.2357 20.0776 74.9954 19.8189V22.2615H73.7125V15.5689Z" fill="white"/>
<path d="M79.0081 19.0337L80.2954 18.8375C80.3503 19.0871 80.4613 19.2767 80.6287 19.406C80.796 19.5352 81.0304 19.5999 81.3318 19.5999C81.6635 19.5999 81.913 19.539 82.0805 19.4172C82.193 19.3321 82.2493 19.2179 82.2493 19.0749C82.2493 18.9776 82.2189 18.8968 82.158 18.8329C82.0942 18.7721 81.9509 18.7158 81.7289 18.664C80.6941 18.4358 80.0382 18.2273 79.7614 18.0387C79.3779 17.7769 79.186 17.4132 79.186 16.9475C79.186 16.5276 79.3519 16.1745 79.6838 15.8885C80.0154 15.6023 80.5298 15.4594 81.2267 15.4594C81.8902 15.4594 82.3832 15.5675 82.7058 15.7834C83.0283 15.9996 83.2506 16.3191 83.3723 16.7422L82.1625 16.9659C82.1108 16.7772 82.0127 16.6327 81.8682 16.5322C81.7235 16.4317 81.5173 16.3815 81.2495 16.3815C80.9119 16.3815 80.6697 16.4287 80.5238 16.523C80.4262 16.59 80.3777 16.6767 80.3777 16.7832C80.3777 16.8745 80.4201 16.9521 80.5054 17.016C80.6211 17.1014 81.0204 17.2215 81.7039 17.3766C82.387 17.5319 82.864 17.7223 83.135 17.9473C83.4028 18.1756 83.5367 18.4937 83.5367 18.9014C83.5367 19.3457 83.3509 19.7276 82.9798 20.0473C82.6084 20.3667 82.0591 20.5266 81.3318 20.5266C80.6713 20.5266 80.1485 20.3928 79.7636 20.1249C79.3786 19.8571 79.1268 19.4934 79.0081 19.0337Z" fill="white"/>
<path d="M84.6141 20.417V13.7244H85.8968V17.2762L87.3986 15.5688H88.9783L87.3211 17.3401L89.0969 20.417H87.7138L86.4949 18.2394L85.8968 18.8648V20.417H84.6141Z" fill="white"/>
<path d="M90.8774 17.9929C90.8774 18.4738 90.9915 18.842 91.22 19.0977C91.448 19.3534 91.7294 19.4812 92.0644 19.4812C92.3991 19.4812 92.6797 19.3534 92.9067 19.0977C93.1334 18.842 93.2469 18.4708 93.2469 17.9839C93.2469 17.5091 93.1334 17.1439 92.9067 16.8883C92.6797 16.6327 92.3991 16.5048 92.0644 16.5048C91.7294 16.5048 91.448 16.6327 91.22 16.8883C90.9915 17.1439 90.8774 17.5121 90.8774 17.9929ZM89.5627 17.9245C89.5627 17.4985 89.6678 17.086 89.8776 16.6873C90.0877 16.2888 90.3852 15.9844 90.7702 15.7744C91.155 15.5643 91.5851 15.4594 92.0598 15.4594C92.7932 15.4594 93.3942 15.6974 93.863 16.1739C94.3316 16.6501 94.5661 17.2519 94.5661 17.9793C94.5661 18.7128 94.3295 19.3207 93.8562 19.803C93.3828 20.2854 92.7872 20.5266 92.0688 20.5266C91.6245 20.5266 91.2008 20.4261 90.7977 20.2253C90.3944 20.0244 90.0877 19.73 89.8776 19.3421C89.6678 18.9538 89.5627 18.4815 89.5627 17.9245Z" fill="white"/>
<path d="M98.7614 20.4171V19.6912C98.5849 19.9499 98.3529 20.1539 98.0653 20.3028C97.7777 20.4521 97.4741 20.5266 97.1546 20.5266C96.8288 20.5266 96.5366 20.455 96.2781 20.3121C96.0194 20.1689 95.8322 19.9681 95.7165 19.7094C95.6009 19.4508 95.5432 19.0931 95.5432 18.6366V15.5689H96.8259V17.7967C96.8259 18.4784 96.8494 18.8962 96.8966 19.0499C96.9438 19.2035 97.0297 19.3252 97.1546 19.4151C97.2793 19.5048 97.4376 19.5496 97.6294 19.5496C97.8485 19.5496 98.0449 19.4896 98.2182 19.3695C98.3917 19.2492 98.5103 19.0999 98.5744 18.922C98.6381 18.7439 98.6702 18.3079 98.6702 17.614V15.5689H99.9529V20.4171H98.7614Z" fill="white"/>
<path d="M107.07 20.4171V19.6912C106.893 19.9499 106.661 20.1539 106.374 20.3028C106.086 20.4521 105.783 20.5266 105.463 20.5266C105.137 20.5266 104.845 20.455 104.587 20.3121C104.328 20.1689 104.141 19.9681 104.025 19.7094C103.909 19.4508 103.852 19.0931 103.852 18.6366V15.5689H105.134V17.7967C105.134 18.4784 105.158 18.8962 105.205 19.0499C105.252 19.2035 105.338 19.3252 105.463 19.4151C105.588 19.5048 105.746 19.5496 105.938 19.5496C106.157 19.5496 106.353 19.4896 106.527 19.3695C106.7 19.2492 106.819 19.0999 106.883 18.922C106.947 18.7439 106.979 18.3079 106.979 17.614V15.5689H108.262V20.4171H107.07Z" fill="white"/>
<path d="M114 20.417H112.717V17.9427C112.717 17.4192 112.69 17.0807 112.635 16.9268C112.58 16.7733 112.491 16.6538 112.368 16.5685C112.245 16.4834 112.096 16.4408 111.923 16.4408C111.701 16.4408 111.501 16.5017 111.325 16.6234C111.148 16.7451 111.027 16.9064 110.962 17.1073C110.896 17.3081 110.864 17.6794 110.864 18.2212V20.417H109.581V15.5688H110.772V16.2809C111.195 15.7331 111.728 15.4593 112.37 15.4593C112.653 15.4593 112.912 15.5103 113.146 15.6122C113.38 15.7142 113.558 15.8442 113.678 16.0025C113.798 16.1608 113.882 16.3403 113.929 16.5411C113.976 16.742 114 17.0297 114 17.404V20.417Z" fill="white"/>
<path d="M115.301 20.417V15.5688H116.584V20.417H115.301ZM115.301 14.9115V13.7244H116.584V14.9115H115.301Z" fill="white"/>
<path d="M117.898 20.417V15.5688H119.181V20.417H117.898ZM117.803 14.9753L118.433 13.6103H119.87L118.615 14.9753H117.803Z" fill="white"/>
</g>
<defs>
<clipPath id="clip0_12055_12161">
<rect width="124.708" height="35" fill="white"/>
</clipPath>
</defs>
</svg>
