<svg width="79" height="35" viewBox="0 0 79 35" fill="none" xmlns="http://www.w3.org/2000/svg">
<path d="M5.21076 9.57582C5.61668 9.41345 5.96396 9.17435 6.24811 8.86771C6.53225 8.55647 6.75326 8.19115 6.9066 7.75818C7.05994 7.32971 7.13662 6.84711 7.13662 6.31491C7.13662 5.78271 7.05994 5.31365 6.9066 4.88518C6.75326 4.46122 6.53225 4.0959 6.24811 3.79371C5.96396 3.49152 5.61668 3.257 5.21076 3.09463C4.80485 2.93226 4.34932 2.85107 3.84418 2.85107H1.69732V9.81937H3.84418C4.34932 9.81937 4.80485 9.73819 5.21076 9.57582ZM2.75271 3.74861H3.83966C4.29068 3.74861 4.68308 3.85234 5.00781 4.06432C5.33254 4.27179 5.58511 4.56946 5.76101 4.95283C5.9369 5.33619 6.02711 5.79172 6.02711 6.31491C6.02711 6.8381 5.9369 7.28912 5.76101 7.6815C5.58511 8.07388 5.33254 8.38058 5.00781 8.5971C4.68308 8.81359 4.29068 8.92183 3.83966 8.92183H2.75271V3.74861Z" fill="white"/>
<path d="M11.2723 9.81937H13.0087V8.92183H11.2723V3.74861H13.0087V2.85107H11.2723H10.2124H8.46698V3.74861H10.2124V8.92183H8.46698V9.81937H10.2124H11.2723Z" fill="white"/>
<path d="M16.3787 3.95555C16.6764 3.73906 17.0102 3.63081 17.38 3.63081C17.7995 3.63081 18.1422 3.76612 18.4039 4.03222C18.6654 4.29832 18.8233 4.65463 18.8774 5.10114H20.0455C20.005 4.60051 19.8651 4.17655 19.6261 3.82476C19.387 3.47296 19.0759 3.20235 18.6925 3.01743C18.3091 2.83251 17.8806 2.73779 17.3981 2.73779C16.7802 2.73779 16.2344 2.89114 15.7699 3.19332C15.3053 3.49551 14.94 3.91495 14.6829 4.45618C14.4214 4.9974 14.295 5.62432 14.295 6.34144C14.295 7.05857 14.4214 7.69901 14.6784 8.24024C14.9355 8.7815 15.2918 9.19638 15.7518 9.49857C16.2119 9.79624 16.7486 9.94956 17.371 9.94956C17.9573 9.94956 18.4805 9.84132 18.9451 9.62039C19.4096 9.39938 19.7749 9.09266 20.05 8.70032V6.14299H17.822L17.7814 7.04955L18.9992 7.00895V8.38907C18.8278 8.58302 18.6113 8.74086 18.3497 8.86268C18.0881 8.98441 17.7904 9.04758 17.4522 9.04758C17.0643 9.04758 16.717 8.94386 16.4103 8.73182C16.1036 8.51987 15.8556 8.21768 15.6797 7.81177C15.5038 7.40585 15.4136 6.91875 15.4136 6.33694C15.4136 5.75512 15.4993 5.28606 15.6751 4.88465C15.8465 4.48324 16.081 4.17203 16.3787 3.95555Z" fill="white"/>
<path d="M24.2485 9.81937H25.9895V8.92183H24.2485V3.74861H25.9895V2.85107H24.2485H23.1931H21.4432V3.74861H23.1931V8.92183H21.4432V9.81937H23.1931H24.2485Z" fill="white"/>
<path d="M27.433 3.74861H29.6836V9.81937H30.739V3.74861H32.985V2.85107H27.433V3.74861Z" fill="white"/>
<path d="M35.398 8.06377H37.9913L38.528 9.82278H39.615L37.4591 2.85449H35.9392L33.7833 9.82278H34.8522L35.398 8.06377ZM36.2819 5.21784L36.7014 3.67986L37.1208 5.20881L37.7162 7.16624H35.6775L36.2819 5.21784Z" fill="white"/>
<path d="M37.9689 0.523438H36.8684L36.0024 2.20123H36.891L37.9689 0.523438Z" fill="white"/>
<path d="M45.7575 8.92183H42.0998V2.85107H41.0444V9.81937H45.7575V8.92183Z" fill="white"/>
<path d="M48.121 6.37354L48.0308 4.28983L50.9579 9.81937H52.2658V2.85107H51.2466V6.28334L51.3278 8.44372L48.4232 2.85107H47.1017V9.81937H48.121V6.37354Z" fill="white"/>
<path d="M57.4659 0.513428H56.37L55.4995 2.19122H56.388L57.4659 0.513428Z" fill="white"/>
<path d="M56.6997 9.81937H58.4361V8.92183H56.6997V3.74861H58.4361V2.85107H56.6997H55.6398H53.8943V3.74861H55.6398V8.92183H53.8943V9.81937H55.6398H56.6997Z" fill="white"/>
<path d="M3.49264 14.8291L1.33676 21.8019H2.40568L2.95142 20.0429H5.54478L6.08149 21.8019H7.16845L5.01257 14.8336H3.49264V14.8291ZM3.22653 19.1408L3.83091 17.1925L4.25035 15.6545L4.6698 17.1834L5.26515 19.1408H3.22653Z" fill="white"/>
<path d="M14.9536 20.8998V21.8019H16.7035H17.7634H19.4999V20.8998H17.7634V15.7312H19.4999V14.8291H17.7634H16.7035H14.9536V15.7312H16.7035V20.8998H14.9536Z" fill="white"/>
<path d="M25.2904 18.2658L25.3671 20.4218L22.4626 14.8291H21.1455V21.8019H22.1649V18.3561L22.0747 16.2679L24.9973 21.8019H26.3052V14.8291H25.2904V18.2658Z" fill="white"/>
<path d="M32.7865 15.7312V14.8291H27.7352V21.8019H28.7951V18.6357H31.5598V17.7382H28.7951V15.7312H32.7865Z" fill="white"/>
<path d="M38.2573 15.1499C37.8198 14.8567 37.3011 14.7124 36.7103 14.7124C36.1194 14.7124 35.6007 14.8612 35.1633 15.1499C34.7258 15.443 34.383 15.858 34.1394 16.3992C33.8959 16.9405 33.7741 17.5763 33.7741 18.316C33.7741 19.0557 33.8959 19.6827 34.1394 20.2239C34.383 20.7651 34.7213 21.18 35.1633 21.4776C35.6007 21.7753 36.1194 21.9197 36.7103 21.9197C37.3011 21.9197 37.8198 21.7709 38.2573 21.4776C38.6947 21.18 39.0375 20.7651 39.2811 20.2239C39.5246 19.6827 39.6464 19.0512 39.6464 18.316C39.6464 17.5809 39.5246 16.9359 39.2811 16.3992C39.0375 15.858 38.6992 15.443 38.2573 15.1499ZM38.3069 19.7548C38.1535 20.1607 37.9415 20.4719 37.6664 20.6929C37.3913 20.9139 37.0756 21.0221 36.7103 21.0221C36.3449 21.0221 36.0337 20.9139 35.7586 20.6929C35.4835 20.4719 35.267 20.1607 35.1136 19.7548C34.9603 19.3489 34.8836 18.8707 34.8836 18.316C34.8836 17.7612 34.9603 17.2832 35.1136 16.8773C35.267 16.4714 35.4835 16.1601 35.7586 15.9392C36.0337 15.7182 36.354 15.6099 36.7103 15.6099C37.0665 15.6099 37.3958 15.7182 37.6664 15.9392C37.937 16.1601 38.1535 16.4714 38.3069 16.8728C38.4602 17.2741 38.5369 17.7568 38.5369 18.316C38.5369 18.8753 38.4602 19.3489 38.3069 19.7548Z" fill="white"/>
<path d="M44.7657 15.0636C44.4048 14.9058 43.9945 14.8291 43.5389 14.8291H40.7922V21.7973H41.8521V18.8837H42.7C42.8805 18.9875 43.0473 19.0958 43.2052 19.213C43.5299 19.4521 43.8005 19.7137 44.017 19.9933C44.238 20.2729 44.4094 20.566 44.5402 20.8727C44.671 21.1795 44.7567 21.4906 44.7927 21.8019H45.8706C45.8391 21.4681 45.7669 21.1434 45.6542 20.8232C45.5459 20.5029 45.3836 20.1962 45.1761 19.894C44.9687 19.5918 44.7025 19.3123 44.3868 19.0417C44.2831 18.9559 44.1658 18.8748 44.053 18.7936C44.1613 18.7665 44.2741 18.7484 44.3733 18.7124C44.6981 18.5951 44.9776 18.4418 45.2077 18.2433C45.4377 18.0448 45.6136 17.8239 45.7353 17.5804C45.8572 17.3323 45.9203 17.0797 45.9203 16.8136C45.9203 16.3941 45.8165 16.0378 45.6091 15.7447C45.4017 15.4515 45.122 15.226 44.7612 15.0727L44.7657 15.0636ZM44.6214 17.427C44.4905 17.6074 44.3147 17.7427 44.0937 17.8419C43.8681 17.9366 43.6111 17.9863 43.318 17.9863H41.8521V15.7312H43.5389C43.778 15.7312 43.9945 15.7762 44.1883 15.8619C44.3823 15.9477 44.5357 16.0694 44.6485 16.2317C44.7612 16.3896 44.8198 16.5835 44.8198 16.8091C44.8198 17.0346 44.7567 17.2466 44.6258 17.427H44.6214Z" fill="white"/>
<path d="M50.7869 14.8291L49.9209 18.9559L49.6999 20.3135L49.4879 18.9559L48.5995 14.8291H47.2148L46.6961 21.8019H47.7245L47.9409 17.436L48.0041 15.88L48.2837 17.436L49.2219 21.8019H50.1194L51.0665 17.436L51.3687 15.8981L51.4093 17.436L51.6348 21.8019H52.6857L52.1579 14.8291H50.7869Z" fill="white"/>
<path d="M55.4095 14.8291L53.2536 21.7973H54.3226L54.8683 20.0384H57.4616L57.9983 21.7973H59.0853L56.9295 14.8291H55.4095ZM55.1434 19.1408L55.7477 17.1925L56.1672 15.6545L56.5866 17.1834L57.182 19.1408H55.1434Z" fill="white"/>
<path d="M63.3476 14.1626L64.5563 12.4849H63.5776L62.7883 13.6034L62.008 12.4849H61.0204L62.2291 14.1626H63.3476Z" fill="white"/>
<path d="M64.1593 20.2824C64.0149 20.517 63.83 20.6974 63.5955 20.8282C63.3609 20.959 63.0903 21.0221 62.7746 21.0221C62.4138 21.0221 62.0936 20.9139 61.805 20.6974C61.5208 20.4809 61.2953 20.1698 61.133 19.7638C60.9706 19.3579 60.8893 18.8753 60.8893 18.316C60.8893 17.7568 60.9706 17.2741 61.1284 16.8682C61.2863 16.4623 61.5118 16.1512 61.8004 15.9347C62.0891 15.7182 62.4228 15.6099 62.8017 15.6099C63.2392 15.6099 63.6 15.7452 63.8796 16.0159C64.1593 16.2865 64.3262 16.6428 64.3803 17.0892H65.5394C65.4988 16.5976 65.3545 16.1737 65.1064 15.8174C64.8583 15.4611 64.5336 15.1905 64.1367 14.9965C63.7398 14.8071 63.2978 14.7124 62.8153 14.7124C62.2109 14.7124 61.6786 14.8612 61.2231 15.1499C60.7676 15.443 60.4113 15.858 60.1587 16.3992C59.9062 16.9405 59.7798 17.5718 59.7798 18.307C59.7798 19.0422 59.9016 19.6375 60.1452 20.1787C60.3887 20.7199 60.736 21.1485 61.1826 21.4551C61.6335 21.7664 62.1613 21.9197 62.7746 21.9197C63.3158 21.9197 63.7849 21.816 64.1863 21.613C64.5877 21.41 64.9079 21.1259 65.1515 20.756C65.3906 20.3862 65.5348 19.9577 65.58 19.4616H64.4119C64.3848 19.7728 64.2991 20.0479 64.1593 20.2824Z" fill="white"/>
<path d="M70.7169 18.2658L70.7936 20.4218L67.889 14.8291H66.5721V21.8019H67.5913V18.3561L67.5012 16.2679L70.4283 21.8019H71.7317V14.8291H70.7169V18.2658Z" fill="white"/>
<path d="M77.9063 15.7312V14.8291H76.1654H75.11H73.36V15.7312H75.11V20.8998H73.36V21.8019H75.11H76.1654H77.9063V20.8998H76.1654V15.7312H77.9063Z" fill="white"/>
<path d="M76.9367 12.4915H75.8362L74.9702 14.1692H75.8587L76.9367 12.4915Z" fill="white"/>
<path d="M3.49264 26.8135L1.33676 33.7817H2.40568L2.95142 32.0228H5.54478L6.08149 33.7817H7.16845L5.01257 26.8135H3.49264ZM3.22653 31.1252L3.83091 29.1767L4.25035 27.6388L4.6698 29.1678L5.26515 31.1252H3.22653Z" fill="white"/>
<path d="M9.88792 27.9145C10.1856 27.698 10.5194 27.5898 10.8892 27.5898C11.3087 27.5898 11.6514 27.7251 11.9131 27.9913C12.1746 28.2573 12.3325 28.6137 12.3866 29.0601H13.5547C13.5142 28.5595 13.3744 28.1355 13.1353 27.7837C12.8962 27.4319 12.5851 27.1613 12.2017 26.9764C11.8183 26.7915 11.3899 26.6968 10.9073 26.6968C10.2893 26.6968 9.74366 26.8502 9.2791 27.1524C8.81452 27.4545 8.44919 27.874 8.19211 28.4152C7.93051 28.9564 7.80423 29.5833 7.80423 30.3005C7.80423 31.0176 7.93051 31.6581 8.1876 32.1993C8.44468 32.7405 8.80099 33.1554 9.261 33.4576C9.72103 33.7553 10.2578 33.9087 10.8802 33.9087C11.4665 33.9087 11.9897 33.8004 12.4543 33.5794C12.9188 33.3584 13.2841 33.0517 13.5593 32.6593V30.102H11.3312L11.2906 31.0085L12.5084 30.968V32.3481C12.337 32.542 12.1205 32.6999 11.8589 32.8217C11.5973 32.9434 11.2996 33.0066 10.9614 33.0066C10.5735 33.0066 10.2262 32.9029 9.91951 32.6908C9.61279 32.4789 9.36472 32.1767 9.18886 31.7708C9.01296 31.3648 8.92276 30.8777 8.92276 30.296C8.92276 29.7141 9.00845 29.245 9.18435 28.8436C9.35575 28.4423 9.59025 28.1311 9.88792 27.9145Z" fill="white"/>
<path d="M15.8734 30.6155H18.5886V29.718H15.8734V27.7109H19.8154V26.8135H14.8135V33.7817H19.856V32.8842H15.8734V30.6155Z" fill="white"/>
<path d="M25.2904 30.2457L25.3671 32.406L22.4626 26.8135H21.1455V33.7817H22.1649V30.3359L22.0747 28.2522L24.9973 33.7817H26.3052V26.8135H25.2904V30.2457Z" fill="white"/>
<path d="M27.433 27.7109H29.6836V33.7817H30.739V27.7109H32.985V26.8135H27.433V27.7109Z" fill="white"/>
<path d="M38.3478 31.3056C38.3478 31.6438 38.2802 31.9416 38.1449 32.1941C38.0096 32.4467 37.8201 32.6452 37.5765 32.7849C37.333 32.9247 37.0443 32.9924 36.7106 32.9924C36.3769 32.9924 36.0882 32.9247 35.8402 32.7849C35.5921 32.6452 35.4027 32.4467 35.2674 32.1941C35.1321 31.9416 35.0644 31.6438 35.0644 31.3056V26.8135H33.9955V31.3056C33.9955 31.8243 34.1082 32.2798 34.3337 32.6677C34.5593 33.0555 34.8749 33.3577 35.2809 33.5742C35.6868 33.7907 36.1649 33.8989 36.7106 33.8989C37.2563 33.8989 37.7299 33.7907 38.1313 33.5742C38.5327 33.3577 38.8485 33.0555 39.0739 32.6677C39.2995 32.2798 39.4122 31.8243 39.4122 31.3056V26.8135H38.3433V31.3056H38.3478Z" fill="white"/>
<path d="M45.2122 30.2221C45.4422 30.0236 45.6181 29.8026 45.7399 29.5591C45.8617 29.311 45.9248 29.0584 45.9248 28.7923C45.9248 28.3729 45.8211 28.0165 45.6136 27.7234C45.4062 27.4302 45.1265 27.2047 44.7657 27.0514C44.4048 26.8981 43.9945 26.8169 43.5389 26.8169H40.7922V33.7851H41.8521V30.8715H42.7C42.8805 30.9752 43.0473 31.0835 43.2052 31.2008C43.5299 31.4398 43.8005 31.7014 44.017 31.981C44.238 32.2607 44.4094 32.5538 44.5402 32.8605C44.671 33.1673 44.7567 33.4784 44.7927 33.7897H45.8706C45.8391 33.4559 45.7669 33.1311 45.6542 32.8109C45.5459 32.4906 45.3836 32.1795 45.1761 31.8818C44.9687 31.5842 44.7025 31.3 44.3868 31.0294C44.2831 30.9437 44.1658 30.8626 44.053 30.7814C44.1613 30.7543 44.2741 30.7362 44.3733 30.7001C44.6981 30.5829 44.9776 30.4295 45.2077 30.2311L45.2122 30.2221ZM43.3224 29.9695H41.8566V27.7144H43.5434C43.7824 27.7144 43.9989 27.7595 44.1929 27.8452C44.3868 27.9309 44.5402 28.0526 44.6529 28.215C44.7657 28.3729 44.8243 28.5668 44.8243 28.7923C44.8243 29.0179 44.7611 29.2298 44.6304 29.4102C44.4996 29.5906 44.3236 29.7259 44.1027 29.8252C43.8772 29.9199 43.6201 29.9695 43.3269 29.9695H43.3224Z" fill="white"/>
<path d="M48.9191 26.8135L46.7632 33.7817H47.8322L48.3779 32.0228H50.9713L51.508 33.7817H52.5949L50.439 26.8135H48.9191ZM48.653 31.1252L49.2574 29.1767L49.6769 27.6388L50.0963 29.1678L50.6916 31.1252H48.653Z" fill="white"/>
<path d="M53.7634 34.6591V33.7795H58.5848V34.6591H53.7634Z" fill="white"/>
</svg>
