<svg xmlns="http://www.w3.org/2000/svg" version="1.1" xmlns:xlink="http://www.w3.org/1999/xlink" width="50" height="50"><svg width="50" height="50" viewBox="0 0 50 50" fill="none" xmlns="http://www.w3.org/2000/svg">
<rect width="50" height="50" fill="white"></rect>
<path fill-rule="evenodd" clip-rule="evenodd" d="M38.7249 14.1038C38.6151 14.6104 37.6259 16.1888 36.3624 17.484L35.5384 16.8077C35.5384 16.8077 37.9014 14.7801 37.7915 13.8218C37.7915 13.8218 36.5817 13.3714 36.7465 12.1885C36.7465 12.1885 37.4057 13.2579 37.8452 12.9197C38.3945 12.5828 37.6812 11.7381 37.077 11.1741C36.5276 10.6675 36.6371 9.70926 36.6371 9.70926C36.6371 9.70926 37.2413 11.2864 38.0104 11.1741C38.3949 11.118 37.9567 10.272 37.9567 9.87772C37.9567 9.87772 38.6159 10.7237 39.0554 11.0044C39.4948 11.3426 39.6034 12.2447 39.3837 12.8074C39.2189 13.3152 38.7799 13.7657 38.7249 14.1038ZM24.7731 30.0476C24.9379 29.9914 24.3332 30.4418 22.9599 30.2722C21.8063 30.1599 20.9274 29.8229 19.9386 29.8791C19.0048 29.9914 18.2349 30.6677 18.7842 33.5412C18.7842 33.5412 18.7855 33.7658 19.2799 33.7658C19.7742 33.7658 20.9274 34.3286 21.5866 35.5127C21.5866 35.5127 19.4992 34.104 19.1146 34.7802C18.9498 35.0622 19.0601 35.343 19.2799 35.4565C19.5545 35.5688 15.9839 36.5271 15.7093 36.5832C15.4895 36.6394 15.3788 36.8079 15.9281 37.146C16.4225 37.4841 16.8062 37.8223 16.6963 37.8223C16.5865 37.8223 16.0376 37.7661 16.0376 37.9346C16.0376 38.1042 15.9835 38.4985 15.5441 38.4985C15.1595 38.4985 14.9389 38.2727 14.9389 37.9346C14.9389 37.5964 14.9385 36.9775 14.4991 36.9775C14.0596 36.9775 13.7309 37.4841 13.7309 38.3289C13.7309 38.949 13.0708 39.1187 12.8511 39.1187C12.6314 39.1187 12.2481 38.949 12.2481 38.5547C12.2481 38.4424 12.028 38.4424 11.8082 38.4424C11.5885 38.4424 12.6331 37.71 12.9627 37.4841C13.1275 37.3718 13.1262 37.0898 13.0163 36.9775C12.9065 36.8652 12.6872 36.6955 12.3576 37.0337C12.028 37.3718 11.698 37.5964 11.3684 37.5964C11.0388 37.5964 10.7096 37.3145 10.7096 36.9775C10.7096 36.6394 10.8744 36.3013 10.4349 36.0754C9.99549 35.8508 12.9627 36.2451 12.9627 35.8508C12.9627 35.4565 12.5782 35.343 12.4134 35.343C12.2486 35.343 11.2589 35.5127 11.2589 34.8364C11.2589 34.4983 11.5336 34.4983 11.5336 34.2724C11.5336 34.0478 11.2031 34.104 11.2031 34.104C11.2031 34.104 11.9177 33.5974 12.467 34.1601C13.0163 34.6667 13.2356 35.3991 13.9497 35.3991C14.6089 35.3991 16.7521 34.7802 16.7521 32.5268C16.7521 31.062 15.9839 29.9352 15.9839 29.7656C15.9839 29.5971 16.5869 29.8791 16.5869 29.3151C16.5869 28.695 12.8524 28.5827 11.6988 29.7656C11.6988 29.7656 11.8636 28.3007 13.8961 28.3007C14.6651 28.3007 14.9402 28.5827 15.4346 28.4704C15.7642 28.3569 14.7196 27.9626 14.8295 27.174C14.8295 27.174 15.4883 27.9626 16.3122 27.9626C16.5869 27.9626 17.0826 26.4989 19.5545 26.4989C22.0265 26.4989 22.3552 26.5539 22.52 26.6674C22.6848 26.7797 22.4651 27.1178 22.7946 27.2301C23.1242 27.3437 24.0585 28.0761 24.0585 28.4704C24.0585 28.8647 23.453 28.977 23.8375 29.541C24.222 30.1037 24.6083 30.1037 24.7731 30.0476ZM39.6583 21.942C39.7682 21.8077 39.9343 21.6185 40.4287 21.765C40.4287 21.765 39.4948 22.2728 39.6047 23.3995C39.7146 24.5263 38.7245 27.2875 36.0878 27.6818C36.0878 27.6818 35.7037 30.2172 32.6824 29.9352C32.6824 29.9352 35.2084 32.5268 35.0986 35.4553C35.0986 35.4553 33.4519 30.6115 29.5517 28.5265C29.5517 28.5265 29.3324 28.4692 29.4423 28.9208C29.4972 29.3151 29.2221 30.1599 29.0024 30.5541C28.7827 30.9497 28.7269 34.7802 31.9679 35.6811C32.7369 35.8508 33.5064 35.625 33.5064 35.625C33.5064 35.625 33.012 36.4697 31.3091 36.4136C30.8147 36.4136 30.8688 37.146 31.528 37.146C31.6928 37.146 30.6491 41.034 29.3307 42.4976C29.056 42.7283 29.2775 42.8077 29.4423 42.8601C29.4972 42.8711 29.5517 42.8821 29.5517 42.8931C29.6616 42.8931 30.2663 43.23 30.5409 43.4559C30.5409 43.4559 30.156 43.3997 30.101 43.512C30.101 43.5328 30.101 43.5706 30.101 43.6182C30.0461 43.8306 29.9367 44.2444 29.4423 44.2444C28.838 44.2444 28.6719 43.6255 28.6719 43.2874C28.6719 42.9493 28.3432 42.9493 28.1784 43.0054C28.0685 43.0054 27.6295 43.1739 27.5197 43.7378C27.4098 44.3018 27.245 44.9769 26.6957 44.9769C26.1464 44.9769 25.9811 44.5826 25.9811 44.2444C25.9811 44.1663 25.9258 44.1724 25.8159 44.1858C25.706 44.2005 25.5958 44.2225 25.376 44.1321C25.376 44.1321 27.0236 43.1739 26.8588 42.7796C26.694 42.3865 26.4193 42.4976 26.3094 42.6111C26.1996 42.7234 25.4872 43.23 25.0477 43.2874C24.5533 43.3435 24.3332 42.6673 24.6078 42.1607C24.6628 42.0655 24.6083 42.024 24.4984 41.9654C24.3885 41.9202 24.2787 41.864 24.2237 41.7664C24.2237 41.7664 26.5296 42.0484 26.4747 41.5406C26.4197 41.034 25.9811 41.0901 25.7065 41.1463C25.4867 41.2024 24.8267 41.1463 24.8267 40.6397C24.8267 40.4907 24.937 40.4053 24.9919 40.3235C25.0469 40.2503 25.1014 40.1819 25.1014 40.0757C25.1014 39.9072 24.8825 39.7937 24.8825 39.7937C24.8825 39.7937 25.3207 39.6814 25.7601 39.8499C25.9798 39.9182 26.2013 40.155 26.421 40.4163C26.7506 40.8106 27.1888 41.2586 27.5733 41.2586C28.2325 41.2586 28.7814 40.2454 28.7814 38.2727C28.7814 36.3769 28.7264 36.3562 28.2321 36.1572C28.1771 36.1487 28.1776 36.1413 28.1226 36.1316C28.1226 36.0889 28.1226 36.012 28.1226 35.9265C28.1226 35.7922 28.0685 35.6384 27.9038 35.5688C27.6291 35.4553 27.1901 36.0193 27.245 38.3862C27.245 38.3862 26.8043 37.5403 26.7493 36.3574C26.7493 36.189 26.7493 36.0278 26.7493 35.8874C26.8043 35.6506 26.8043 35.4699 26.7493 35.3991C26.6944 35.354 26.5858 35.4638 26.421 35.6323C26.2013 35.8838 25.8704 36.2671 25.376 36.4697C25.376 36.4697 26.0348 35.4553 26.0348 34.7802C26.0348 34.5605 25.9258 34.4482 25.8159 34.2956C25.5412 33.9795 25.1014 33.4912 25.1014 31.5124C25.1014 30.8422 25.2125 30.4724 25.3224 30.1171C25.4322 29.7851 25.4855 29.464 25.4855 28.9208C25.4855 27.9321 23.7839 26.8139 22.6852 26.0973C22.5204 25.9972 22.3552 25.9045 22.2453 25.8214C21.3115 25.089 20.3223 24.132 20.1575 23.9074C20.1026 23.8158 20.3218 23.5338 20.5416 23.203C20.9261 22.7111 21.4213 22.1141 21.1467 21.8785C20.7622 21.5563 20.4879 21.9847 20.2133 22.4279C20.1583 22.5292 20.103 22.6293 20.048 22.7233C19.7185 23.2311 19.2249 23.6815 19.0052 23.7938C18.8953 23.8353 18.9494 23.59 18.9494 23.264C19.0043 22.7123 19.0593 21.9347 18.6747 21.9347C18.0705 21.9347 18.0156 22.5548 18.1254 22.7794C18.1804 22.8722 18.125 22.8795 17.9602 22.8905C17.7405 22.9076 17.356 22.932 17.1362 23.2311V23.2445C16.8616 23.579 16.5328 23.9769 16.368 24.9767C16.368 24.9767 16.0384 24.1881 16.368 23.3434C16.4779 23.1176 15.3248 23.2872 13.2373 23.7938C12.9077 23.85 12.9069 24.0758 12.9069 24.6386C12.9618 25.3148 12.9618 25.653 12.9069 25.935C12.852 26.1034 12.7417 25.653 12.7417 25.5407C12.7417 25.5102 12.6863 25.5248 12.5764 25.548C12.2468 25.609 11.6988 25.7189 11.6988 25.1464C11.6988 24.6972 11.8087 24.6129 11.9735 24.5409C12.0284 24.486 12.1387 24.4384 12.1387 24.2455C12.1387 23.7938 11.8636 23.5119 11.4242 23.5119C11.2044 23.5119 10.9838 23.7096 10.819 23.9257C10.5993 24.1845 10.3259 24.4701 9.94142 24.4701C9.28223 24.4701 9.17108 23.9635 9.17108 23.7938C9.17108 23.7096 9.17194 23.6388 9.22687 23.5692C9.22687 23.4984 9.28052 23.4276 9.28052 23.3434C9.28052 23.1737 9.11572 23.0053 9.00586 23.0053C8.95093 23.0053 9.06165 22.893 9.33631 22.893C9.39124 22.893 9.44531 22.9003 9.55518 22.9113C10.0496 22.9601 11.0937 23.0602 11.0937 22.4987C11.0937 22.2838 10.8748 22.2972 10.6002 22.3168C10.5452 22.3229 10.4354 22.329 10.3255 22.329C10.3255 22.3229 10.271 22.318 10.2161 22.3119C9.77662 22.2631 9.06165 22.1825 9.06165 21.4281C9.06165 20.9764 9.61097 20.8641 9.61097 20.8641C9.61097 20.8641 9.72169 20.6945 9.66676 20.4137C9.55689 20.1317 10.7654 21.2023 11.0401 21.4843C11.2598 21.765 11.5344 21.5966 11.5894 21.5404C11.6443 21.4843 11.8087 21.2023 11.4242 20.9764C10.9847 20.7518 10.9285 20.526 10.9285 20.1317C10.9285 19.7374 11.3143 19.6813 11.4242 19.6813C11.534 19.6813 11.5877 19.3431 11.4778 19.1173C11.3679 18.8927 12.0271 19.3993 12.3018 20.0755C12.3567 20.1915 12.3576 20.3575 12.3576 20.5382C12.3576 20.9703 12.3571 21.494 13.0163 21.6527C13.0163 21.6527 13.182 21.7089 13.8961 21.4281C14.5003 21.1461 17.9602 19.9071 17.9602 19.9071C17.9602 19.9071 18.6207 19.7374 18.4559 19.3993C18.2361 19.0611 17.6306 19.005 16.8616 19.6251C16.0925 20.2452 17.8516 17.0335 19.5545 17.0335C19.8292 17.0335 19.9386 16.8651 19.9386 16.7516C19.9386 16.6392 19.8833 16.4134 19.2241 16.4134C18.5649 16.4134 17.5765 17.1458 17.192 17.8221C17.1371 17.8624 17.0809 17.8148 16.971 17.7354C16.8062 17.5987 16.532 17.3705 16.0376 17.3705C15.2136 17.3705 14.7205 17.5401 14.6106 17.5963C14.4458 17.5963 14.9952 16.8077 15.9839 16.8077C16.1487 16.8077 16.1487 16.5269 15.7093 16.245C15.4895 16.0594 15.0488 15.4869 14.6643 15.0511C14.4995 14.8228 14.3351 14.6312 14.2802 14.5543C14.0605 14.3284 13.6206 15.1744 13.291 15.8507C13.2361 16.0191 13.1258 15.6248 13.1258 15.4564C13.1258 15.4014 13.0725 15.3697 12.9627 15.3282C12.7429 15.2403 12.3576 15.1048 12.3576 14.6104C12.3576 13.8218 12.9627 14.0477 13.2373 14.16C13.5669 14.2723 13.8952 13.878 13.8403 13.5399C13.7854 13.2029 13.4553 12.8087 12.8511 12.8648C12.3018 12.921 11.5894 12.5267 11.5894 11.9627C11.5894 11.5501 11.8087 11.4695 11.9735 11.4122C12.0284 11.3914 12.0838 11.3731 12.1387 11.3426C12.2486 11.2303 12.2473 10.8921 12.1923 10.7798C12.1374 10.6663 12.797 11.118 13.1815 11.6246C13.621 12.075 13.7313 12.1885 13.8961 12.075C14.0609 11.9627 14.115 11.6246 13.5656 11.1741C12.9614 10.7237 13.0713 10.1597 13.291 9.82157C13.3459 9.78129 13.4566 9.79837 13.6214 9.81913C13.8961 9.85697 14.2261 9.90702 14.336 9.65311C14.4458 9.20267 14.6106 10.4978 14.6106 11.118C14.6106 11.5684 14.7205 11.6807 14.8853 11.6807C15.0501 11.6807 15.214 11.6246 15.1042 10.8921C14.9943 10.1768 15.2698 10.0645 15.4346 10.0071C15.4346 10.001 15.4346 9.99613 15.4346 9.99003C15.5994 9.93388 15.8179 9.93388 16.0376 10.1036C16.2024 10.272 16.4775 9.99003 16.4775 9.76542C16.4775 9.76542 16.7513 10.3855 16.4217 10.8921C16.3118 11.0118 16.2032 11.1216 16.0934 11.2339C15.7638 11.6001 15.3793 11.9896 15.8187 12.8087L18.9494 16.0191C18.9494 16.0191 19.17 16.0191 19.0052 15.7945C18.8404 15.5687 18.8953 15.2305 19.0052 15.1182C19.0052 15.1182 20.0485 16.0753 22.1359 15.8507C24.2782 15.6248 25.1027 14.16 24.7731 13.8218C24.7731 13.8218 23.8937 14.7801 22.9599 14.7801C22.081 14.7801 21.5866 13.878 21.8612 13.2591C21.8612 13.2591 22.2994 13.7657 23.0135 13.7657C23.7826 13.7657 24.498 12.921 24.3332 12.4705C24.2782 12.3594 24.0023 12.4388 23.5628 12.5767C22.9037 12.7903 21.805 13.1456 20.2669 13.1456C17.74 13.1456 17.3555 10.6663 19.1683 9.59696C19.1683 9.59696 17.7413 12.4705 21.0373 12.4705C22.7951 12.4705 24.1122 11.9627 24.1122 11.9627C24.1122 11.9627 23.9486 11.0618 22.9599 11.0618C22.026 11.0618 21.7518 12.0189 21.7518 12.0189C21.7518 12.0189 20.9819 11.5123 21.1467 10.7237C21.1467 10.6394 21.2566 10.6187 21.4213 10.5918C21.6411 10.5491 21.9707 10.493 21.9707 10.1036C21.9707 9.87772 21.8067 9.87772 21.7518 9.87772C21.587 9.87772 21.5857 9.98148 21.5308 10.0889C21.4759 10.2061 21.4209 10.3282 21.2561 10.3282C20.9265 10.3282 20.9274 9.42728 21.5866 9.42728C21.5866 9.42728 22.1359 9.48465 22.1359 9.20267C22.1359 8.92069 23.0152 8.58255 24.7731 8.58255C26.476 8.58255 26.9703 9.08914 26.9703 9.08914C26.9703 9.08914 27.1338 8.47024 27.848 8.47024C28.617 8.47024 28.6719 9.03299 28.6719 9.14652C28.6719 9.40287 28.5616 9.58841 28.5067 9.71659C28.4518 9.78617 28.4531 9.83866 28.4531 9.87772C28.4531 9.90458 28.5076 9.99979 28.5625 10.1463C28.8921 10.6199 29.5517 11.6221 29.5517 12.5267C29.5517 13.7095 29.7706 15.1182 30.8692 16.245C30.8692 16.245 30.0465 16.1314 29.4423 15.5125C29.2775 15.399 29.2217 18.0467 29.6611 18.8365C29.8259 19.005 29.4959 18.9488 29.2213 18.6107C29.1114 18.513 29.0573 18.4154 29.0024 18.3275C28.8376 18.1151 28.7269 17.9674 28.6719 18.0467V18.0528C28.5621 18.2066 27.793 19.8143 28.6719 21.2584C28.9466 21.5966 27.8492 21.1461 27.5197 20.4698C27.4098 20.2452 26.8051 22.3851 27.6291 24.0758C27.7939 24.414 26.8605 23.6815 26.6957 23.3995C26.5309 23.1176 26.2549 23.7377 26.7493 24.6947C27.2437 25.7091 27.6836 26.6112 28.0132 26.9494C28.2878 27.1789 28.7827 27.4352 29.2771 27.6464C29.4418 27.7453 29.6607 27.8344 29.7706 27.9064C29.8255 27.9394 29.9367 27.9894 29.9916 28.0505C30.5958 28.4179 31.8035 29.2028 32.9571 29.2028C34.3304 29.2028 34.9891 28.2446 34.9891 27.7941C34.9891 27.7782 34.935 27.7648 34.7703 27.7416C33.8913 27.5976 30.704 27.0837 30.704 23.3995C30.704 20.3014 33.9999 18.4422 33.9999 18.4422L34.6608 19.1747C34.6608 19.1747 31.749 21.09 31.749 23.3995C31.749 25.7091 33.8351 26.8359 35.0986 26.8359C35.0986 26.8359 35.814 25.4272 32.8476 24.0758C32.8476 24.0758 34.3308 23.6815 35.0449 24.8644C35.2646 25.1464 35.3741 24.9767 35.429 24.8644C35.4839 24.7509 35.9792 24.3017 36.5834 24.5263C36.5834 24.5263 35.5942 25.3149 36.1436 26.7236C36.1436 26.7236 38.6155 26.1596 38.6155 23.5692C38.6155 21.6918 37.0229 20.3466 35.7595 19.298C35.2651 18.8988 34.8797 18.5423 34.605 18.2164C34.3304 17.9051 34.0548 17.6048 33.7253 17.296C32.9013 16.4329 31.9674 15.5003 31.8026 14.0477C31.8026 14.0477 30.8692 13.7657 30.8692 12.5267C30.8692 11.2864 32.2979 10.0474 32.4077 9.99003C32.4627 9.97416 32.4069 10.0791 32.352 10.2342C32.2421 10.6101 32.079 11.2864 32.4635 11.2864C32.9579 11.2864 33.945 10.1036 33.9999 9.87772C34.1098 9.65311 34.1115 10.4978 33.5622 11.2303C33.3424 11.4805 33.1219 11.7051 32.9571 11.909C32.5725 12.3033 32.2438 12.6243 32.4635 12.921C32.7931 13.3714 33.6163 12.5828 33.781 12.2447C33.9458 11.9065 33.6154 13.5399 32.6266 13.9903C32.6266 13.9903 32.0786 14.7227 35.3196 17.5963C36.8577 18.7792 37.516 19.4554 37.7357 19.6813C37.7357 19.6813 37.9567 19.569 37.9567 19.1173C37.9567 18.6668 38.1198 18.2164 38.3945 18.0467C38.3945 18.0467 38.0649 20.4698 38.6691 20.6945C38.8889 20.7518 38.9447 20.526 38.9996 20.1891C39.0545 19.9071 39.2738 19.569 39.3837 19.6251C39.3837 19.6251 38.8889 21.7089 39.4931 22.047C39.548 22.0665 39.6034 22.0116 39.6583 21.942ZM22.52 19.1747C22.6848 19.7374 22.5208 20.4698 22.0265 21.3146C21.9715 21.4281 21.9711 21.6527 22.1359 21.7089C22.1908 21.765 22.2462 21.765 22.3011 21.765C22.411 21.765 22.5208 21.7089 22.5758 21.5966C23.1251 20.5834 23.3998 19.6813 23.1251 18.9488C22.9603 18.2164 22.4106 17.9344 22.4106 17.9344C22.3007 17.8783 22.0814 17.8783 22.0265 18.0467C21.9715 18.2164 22.0252 18.3849 22.0801 18.4984C22.0801 18.4984 22.4101 18.723 22.52 19.1747ZM24.2237 16.1888C24.1688 16.3573 24.1684 16.5269 24.3332 16.5831C24.3332 16.5855 24.3332 16.5916 24.3332 16.6002C24.498 16.721 25.3219 17.3863 24.8825 19.3431C24.8276 19.5128 24.9366 19.6251 25.1014 19.6813H25.1572C25.267 19.6813 25.3769 19.569 25.4318 19.4554C25.9811 17.0885 24.8276 16.2437 24.6078 16.0973C24.6078 16.0863 24.6078 16.0789 24.6078 16.0753C24.498 16.0191 24.3336 16.0753 24.2237 16.1888ZM26.2558 16.5831C26.2558 16.7516 26.3652 16.8651 26.6399 16.8651C26.7498 16.8651 26.9145 16.7516 26.9145 16.5831C26.9695 15.4564 26.915 14.8363 26.8051 14.442C27.2446 14.442 27.6282 14.3858 27.848 14.16C27.9578 14.0477 28.0132 13.9341 28.0132 13.7657C28.0132 12.9771 26.4755 12.357 25.9811 12.1885C25.7614 12.1324 25.5962 12.1885 25.5412 12.357C25.4863 12.5267 25.5417 12.6951 25.7065 12.7513C26.5854 13.0333 27.3531 13.5399 27.4081 13.7657C27.2982 13.8218 27.0802 13.878 26.421 13.878H26.3094C26.1996 13.878 26.0897 13.9341 26.0348 14.0477C25.9798 14.16 26.0356 14.2723 26.0906 14.3858C26.0906 14.3858 26.4206 14.8924 26.2558 16.5831ZM21.8612 24.2455C23.6191 23.3995 23.6744 22.1032 23.6744 22.1032C23.6744 21.9347 23.5646 21.7662 23.3998 21.7662C23.18 21.7662 23.0135 21.8785 23.0135 22.047C23.0135 22.047 22.9599 23.0053 21.5866 23.7377C21.4767 23.7938 21.4222 23.9635 21.4771 24.132C21.5321 24.2455 21.6419 24.3017 21.7518 24.3017C21.7518 24.3017 21.8063 24.2455 21.8612 24.2455ZM20.9278 18.7804C21.0926 18.723 21.0913 18.4984 20.9815 18.3849C20.9265 18.2164 20.7064 18.2164 20.5416 18.2726C20.5416 18.2774 20.5416 18.286 20.5416 18.2994C20.3218 18.4496 19.3889 19.1625 19.2241 20.9203C19.2241 21.09 19.3339 21.2584 19.4987 21.2584H19.5545C19.6644 21.2584 19.8292 21.1461 19.8292 20.9764C19.994 19.3431 20.8729 18.7804 20.9278 18.7804ZM24.8267 9.70926C24.8267 9.70926 25.1572 9.76542 25.1572 9.54081C25.1572 9.31498 24.8825 9.31497 24.8825 9.31497H23.5092C23.1796 9.31497 23.1787 9.48465 23.1787 9.48465C23.1787 9.70926 23.3998 9.87772 23.3998 9.87772H24.1679C24.1679 9.87772 24.4426 9.82279 24.4426 9.93388C24.4426 10.1036 23.5628 10.2159 23.5628 10.2159C23.6727 10.3855 23.7834 10.554 24.1679 10.554C24.8271 10.554 24.8267 9.70926 24.8267 9.70926ZM24.3332 24.1881C25.8713 23.3995 25.9266 21.9347 25.8717 21.8785C25.8717 21.7089 25.706 21.5966 25.5412 21.5966C25.3765 21.5966 25.2666 21.7089 25.2666 21.8785C25.2666 21.9347 25.2121 23.0614 24.0585 23.6815C23.9486 23.7377 23.8941 23.9074 23.9491 24.0758C24.004 24.1881 24.1139 24.2455 24.2237 24.2455C24.2237 24.2455 24.2782 24.1881 24.3332 24.1881ZM22.0265 6.32911C22.0265 6.10328 21.8599 5.93482 21.6402 5.93482L21.4213 5.25855C21.8608 5.3147 23.0135 5.8213 23.0135 6.32911C23.0135 6.83571 22.4642 6.89186 22.4642 6.89186C22.4642 7.56813 23.0693 7.56814 23.0693 7.56814H23.7839C24.2782 7.56814 24.2237 6.89186 24.2237 6.89186C24.2237 6.89186 23.5628 6.77956 23.5628 6.44142C23.5628 5.76514 24.6615 4.97656 24.6615 4.97656C24.6615 4.97656 25.8717 5.76514 25.8717 6.27296C25.8717 6.83571 25.1014 6.89186 25.1014 6.89186C25.2662 7.45583 25.8717 7.51198 25.8717 7.51198H26.4747C27.1338 7.51198 26.8588 6.83571 26.8588 6.83571C26.8588 6.83571 26.3652 6.77955 26.3652 6.38526C26.3652 5.65284 28.069 5.3147 28.069 5.3147L27.9038 5.93482C27.684 5.93482 27.5197 6.10328 27.5197 6.32911C27.5197 6.44142 27.5737 6.55494 27.7385 6.6111L27.2986 8.18826H22.1895L21.8054 6.66725C21.9153 6.6111 22.0265 6.49757 22.0265 6.32911ZM24.7173 5.93482C24.4975 5.93482 24.3332 6.10328 24.3332 6.32911C24.3332 6.55495 24.4975 6.7234 24.7173 6.7234C24.937 6.7234 25.1014 6.55495 25.1014 6.32911C25.1014 6.10328 24.937 5.93482 24.7173 5.93482Z" fill="#2362A2"></path>
</svg><style>@media (prefers-color-scheme: light) { :root { filter: none; } }
@media (prefers-color-scheme: dark) { :root { filter: none; } }
</style></svg>